<?xml version="1.0" encoding="utf-8"?>
<!-- Generator: Adobe Illustrator 24.1.2, SVG Export Plug-In . SVG Version: 6.00 Build 0)  -->
<svg version="1.1" id="Layer_1" xmlns="http://www.w3.org/2000/svg" xmlns:xlink="http://www.w3.org/1999/xlink" x="0px" y="0px"
	 viewBox="0 0 288 288" style="enable-background:new 0 0 288 288;" xml:space="preserve">
<style type="text/css">
	.st0{display:none;fill:#FFFFFF;}
	.st1{fill:#F6EDD5;}
	.st2{fill:none;stroke:#000000;stroke-miterlimit:10;}
	.st3{fill:#F4ECD6;}
	.st4{fill:#FF0001;}
	.st5{fill:none;stroke:#000000;stroke-width:0.5;stroke-miterlimit:10;}
	.st6{fill:none;stroke:#F4ECD6;stroke-miterlimit:10;}
	.st7{fill:none;stroke:#000000;stroke-width:2;stroke-miterlimit:10;}
	.st8{stroke:#000000;stroke-width:2;stroke-miterlimit:10;}
	.st9{stroke:#000000;stroke-miterlimit:10;}
	.st10{fill:none;stroke:#000000;stroke-width:3;stroke-miterlimit:10;}
	.st11{fill:none;stroke:#000000;stroke-width:4;stroke-miterlimit:10;}
	.st12{font-family:'Verdana';}
	.st13{font-size:13.205px;}
	.st14{stroke:#000000;stroke-width:0.5;stroke-miterlimit:10;}
	.st15{font-size:10.337px;}
	.st16{fill:none;stroke:#FA0F0C;stroke-width:0.5;stroke-miterlimit:10;}
	.st17{fill:none;stroke:#F4ECD6;stroke-width:7;stroke-miterlimit:10;}
	.st18{fill:#F4ECD6;stroke:#000000;stroke-miterlimit:10;}
</style>
<rect x="76.8" y="43.08" transform="matrix(0.9348 -0.3553 0.3553 0.9348 -21.0158 60.6453)" class="st0" width="155.62" height="88.93"/>
<path id="_x33_." class="st1" d="M276.91,287.7h-266c-5.52,0-10.03-4.51-10.03-10.03v-266c0-5.52,4.51-10.03,10.03-10.03h266
	c5.52,0,10.03,4.51,10.03,10.03v266C286.94,283.19,282.43,287.7,276.91,287.7z"/>
<g id="XMLID_3_">
	<g>
		<path d="M287.8,11.67l0.13,43.84L0.88,77.7V11.67c0-5.7,4.62-10.31,10.32-10.31h266.28C283.19,1.36,287.8,5.97,287.8,11.67z"/>
	</g>
	<g>
		<line class="st2" x1="0.88" y1="77.7" x2="287.94" y2="55.51"/>
		<path class="st2" d="M0.88,11.67c0-5.7,4.62-10.31,10.32-10.31"/>
		<path class="st2" d="M277.48,1.36c5.71,0,10.32,4.61,10.32,10.31"/>
		<line class="st2" x1="0.88" y1="11.67" x2="0.88" y2="77.7"/>
		<line class="st2" x1="11.2" y1="1.36" x2="277.48" y2="1.36"/>
		<line class="st2" x1="287.94" y1="55.51" x2="287.8" y2="11.67"/>
	</g>
</g>
<g id="XMLID_4_">
	<g>
		<path class="st3" d="M216.41,18.55l70.43,132.83l-3.33,132.98l-116.34,2.5L73.52,48.16c-7.19-17.45-3.03-22.73,14.57-24.33
			l40.16-4.16c3.32,0,5.16,0,6,1.28c5.56,6.4,15.77,6.4,15.77-2.4c0-1.33,1.5-2.4,3.36-2.4l44.97-4.8c2.66-0.41,5.97-0.74,9.31,0.23
			C210.72,12.47,213.81,14.48,216.41,18.55z"/>
		<path class="st4" d="M217.88,17.35l69.28,128.46l-0.32,5.57L216.41,18.55c-2.61-4.07-5.7-6.08-8.77-6.97l0.5-1.79
			C211.94,10.89,215.7,13.14,217.88,17.35z"/>
		<path class="st4" d="M198.34,9.18c2.28-0.43,6.06-0.48,9.81,0.61l-0.5,1.79c-3.33-0.98-6.65-0.64-9.31-0.23l-44.97,4.8
			c-1.86,0-3.36,1.07-3.36,2.4c0,8.8-10.21,8.8-15.77,2.4c-0.84-1.28-2.68-1.28-6-1.28l-40.16,4.16
			c-17.6,1.6-21.76,6.88-14.57,24.33l93.65,238.7l0.33,0.84l-9.12,0.8L64.4,43.35c-4.48-12.58,1.92-21.33,10.67-22.4L198.34,9.18z"
			/>
	</g>
	<g>
		<path class="st2" d="M73.52,48.16c-7.19-17.45-3.03-22.73,14.57-24.33"/>
		<path class="st2" d="M134.24,20.95c5.56,6.4,15.77,6.4,15.77-2.4"/>
		<path class="st2" d="M134.24,20.95c-0.84-1.28-2.68-1.28-6-1.28"/>
		<line class="st2" x1="88.08" y1="23.83" x2="128.25" y2="19.67"/>
		<line class="st2" x1="153.37" y1="16.15" x2="198.34" y2="11.35"/>
		<path class="st2" d="M150.01,18.55c0-1.33,1.5-2.4,3.36-2.4"/>
		<path class="st2" d="M198.34,11.35c2.66-0.41,5.97-0.74,9.31,0.23c3.07,0.89,6.16,2.9,8.77,6.97"/>
		<polyline class="st2" points="73.52,48.16 167.17,286.85 167.5,287.69 		"/>
		<line class="st2" x1="216.41" y1="18.55" x2="286.84" y2="151.37"/>
		<line class="st2" x1="158.39" y1="288.5" x2="64.4" y2="43.35"/>
		<path class="st2" d="M64.4,43.35c-4.48-12.58,1.92-21.33,10.67-22.4"/>
		<line class="st2" x1="75.07" y1="20.95" x2="198.34" y2="9.18"/>
		<path class="st2" d="M198.34,9.18c2.28-0.43,6.06-0.48,9.81,0.61c3.79,1.09,7.55,3.35,9.73,7.55"/>
		<line class="st2" x1="217.88" y1="17.35" x2="287.16" y2="145.8"/>
		<line class="st5" x1="286.84" y1="151.37" x2="287.16" y2="145.8"/>
		<line class="st5" x1="158.39" y1="288.5" x2="167.5" y2="287.69"/>
		<polyline class="st6" points="166.67,286.86 167.17,286.85 283.51,284.35 283.66,284.35 		"/>
		<polyline class="st6" points="286.84,151.37 283.51,284.35 283.5,284.75 		"/>
	</g>
</g>
<polygon points="287.31,151.68 287.31,153.85 285.17,148.75 287.31,148.75 "/>
<polygon points="165.85,125.92 155.61,127.59 152.22,119.2 162.01,117.92 "/>
<polygon points="183.77,164.96 173.53,166.64 170.14,158.24 179.93,156.96 "/>
<polygon points="215.24,119 205,120.68 201.6,112.28 211.4,111 "/>
<polygon class="st7" points="173.53,129.12 152.22,132.64 143.91,115.84 165.85,113.12 "/>
<polygon class="st7" points="223.23,122.08 201.91,125.6 193.61,108.8 215.55,106.08 "/>
<polygon class="st7" points="191.77,168.04 170.45,171.56 162.15,154.76 184.09,152.04 "/>
<line class="st8" x1="152.22" y1="138.08" x2="165.85" y2="136.37"/>
<line class="st8" x1="158.72" y1="137.23" x2="160.84" y2="143.63"/>
<line class="st7" x1="160.84" y1="143.63" x2="157" y2="143.42"/>
<line class="st7" x1="157" y1="143.42" x2="159.78" y2="150.46"/>
<line class="st8" x1="165.85" y1="136.37" x2="169.16" y2="145.98"/>
<line class="st7" x1="167.51" y1="142.56" x2="173.53" y2="142.14"/>
<line class="st7" x1="176.96" y1="146.94" x2="193.61" y2="144.67"/>
<line class="st7" x1="186.66" y1="141.18" x2="189.86" y2="148.96"/>
<line class="st8" x1="217.38" y1="156.96" x2="221.01" y2="164.96"/>
<line class="st7" x1="216.53" y1="165.39" x2="221.01" y2="164.96"/>
<line class="st7" x1="208.42" y1="132.64" x2="212.9" y2="131.68"/>
<line class="st7" x1="212.9" y1="131.68" x2="211.62" y2="129.33"/>
<line class="st7" x1="211.62" y1="129.33" x2="219.19" y2="127.59"/>
<line class="st8" x1="227.83" y1="155.15" x2="230.82" y2="160.96"/>
<line class="st8" x1="197.32" y1="139.15" x2="204.58" y2="154.72"/>
<line class="st8" x1="204.58" y1="154.72" x2="196.26" y2="156"/>
<line class="st7" x1="193.61" y1="150.88" x2="201.96" y2="149.1"/>
<line class="st8" x1="200.42" y1="145.79" x2="204.58" y2="145.07"/>
<line class="st7" x1="197.32" y1="139.98" x2="201.6" y2="139.36"/>
<polygon points="182.17,120.68 175.21,120.68 173.53,115.84 180.5,115.84 "/>
<polygon points="193.61,121.87 186.95,121.87 185.28,117.08 191.94,117.08 "/>
<polygon points="223.23,141.18 212.73,141.18 215.24,147.68 225.73,147.68 "/>
<polygon class="st9" points="203.4,167.85 197.79,168.68 193.61,157.22 199.22,156.39 "/>
<polygon class="st9" points="189.44,136.37 183.01,137.21 181.34,132.16 187.77,131.33 "/>
<polygon points="215.41,144.43 209.25,145.26 208.42,140.43 214.57,140.43 "/>
<polygon class="st9" points="177.85,136 174.37,136 173.53,133.44 177.02,133.44 "/>
<polygon class="st9" points="180.36,141.85 176.88,141.85 176.04,139.29 179.53,139.29 "/>
<polygon class="st9" points="194.57,139.34 191.08,139.34 190.25,136.78 193.73,136.78 "/>
<polygon points="224.01,152.65 220.53,152.65 219.69,150.09 223.17,150.09 "/>
<polygon class="st9" points="202.92,131.82 199.44,131.82 198.6,129.26 202.09,129.26 "/>
<polygon points="229.53,163.91 226.05,163.91 225.21,161.35 228.7,161.35 "/>
<polygon points="237.05,163.07 233.57,163.07 232.73,160.51 236.22,160.51 "/>
<polygon points="242.9,158.89 239.42,158.89 238.58,156.33 242.07,156.33 "/>
<polygon points="208.64,137.17 205.16,137.17 204.32,134.61 207.8,134.61 "/>
<polygon class="st9" points="196.94,127.14 193.46,127.14 192.62,124.58 196.11,124.58 "/>
<polygon points="182.73,129.65 179.25,129.65 178.41,127.08 181.9,127.08 "/>
<polygon points="189.95,111.26 186.47,111.26 185.63,108.7 189.12,108.7 "/>
<polygon points="174.91,112.93 171.43,112.93 170.59,110.37 174.08,110.37 "/>
<polygon points="208.34,167.25 197.79,168.68 196.04,163.91 206.48,162.63 "/>
<polygon points="210.01,163.91 206.52,163.91 205.69,158.84 209.17,158.84 "/>
<polygon points="211.68,160.56 208.2,160.56 207.36,155.5 210.84,155.5 "/>
<polygon points="214.19,157.22 210.7,157.22 208.2,148.81 211.68,148.81 "/>
<polygon points="220.47,137.56 217.04,138.2 215.29,133.38 218.71,132.73 "/>
<polygon points="234.89,149.99 227.42,151.37 226.58,146.3 232.73,145.43 "/>
<polygon points="237.05,147.68 223.23,148.81 222.34,146.1 236.22,144.97 "/>
<polygon points="193.3,169.34 189.81,169.34 188.98,164.27 192.46,164.27 "/>
<polygon points="188.26,124.58 191.77,124.58 185.63,111.65 182.94,111.65 "/>
<polygon points="179.45,123.84 176.49,123.84 173.53,115.84 176.96,117.24 "/>
<polygon points="230.74,146.94 232.73,145.43 236.26,153.76 232.73,153.76 "/>
<polygon points="215.41,143.52 212.73,143.52 210.01,136 212.73,136 "/>
<polygon points="230.74,141.85 227.37,141.85 222.34,131.33 226.18,131.33 "/>
<polygon points="214.19,141.18 230.28,140.81 230.74,142.69 217.88,142.85 "/>
<polygon points="213.37,142.85 205.16,142.85 204.32,140.57 213.37,140.57 "/>
<polygon points="230.02,133.8 227.25,133.8 223.23,125.6 225.73,125.6 "/>
<polygon points="182.94,114.64 180.36,114.64 178.2,109.44 181.34,109.44 "/>
<polygon points="187.05,114.64 180.36,114.64 179.53,111.2 185.63,111.65 "/>
<polygon class="st9" points="191.77,124.58 181.41,125.41 180.57,123.72 190.93,122.88 "/>
<polygon class="st9" points="189.42,128.36 186.47,128.36 184.8,124.58 187.75,124.58 "/>
<polygon class="st9" points="187.77,131.33 194.62,130.49 195.46,132.73 187.77,133.57 "/>
<polygon class="st9" points="195.46,132.73 192.46,132.73 190.79,128.36 193.78,128.36 "/>
<path class="st7" d="M258.56,152.2c6.02,11.16,10.45,19.37,10.45,19.37s-11.45,2.04-27.06,4.82"/>
<path class="st7" d="M183.79,186.75c-15.79,2.81-27.43,4.89-27.43,4.89s-3.81-9.19-8.96-21.61"/>
<path class="st7" d="M128.45,124.32c-4.84-11.68-8.36-20.16-8.36-20.16s11.36-1.38,26.64-3.23"/>
<path class="st7" d="M201.96,94.24c13.81-1.67,23.78-2.88,23.78-2.88s3.89,7.2,9.33,17.29"/>
<polygon class="st9" points="27.7,248.6 10.85,251.8 7.65,239.21 24.5,236.65 "/>
<polygon class="st9" points="87.18,179.48 73.15,180.83 70.61,170.83 83.37,169.91 "/>
<polygon class="st9" points="1.34,178.83 5.64,178.83 8.98,188.01 1.34,188.84 "/>
<polygon class="st7" points="100.25,184.81 64.83,188.84 58.85,164.96 90.64,161.8 "/>
<polygon class="st10" points="0.89,232.17 32.75,227.99 40.27,254.57 2.56,261.26 "/>
<polygon class="st7" points="0.89,170.75 13.41,170.02 21.52,194.19 1.59,196.75 "/>
<polygon class="st9" points="60.13,254.36 50.86,255.39 45.41,237.93 51.78,237.42 "/>
<polygon class="st9" points="67.82,252.87 60.13,254.36 50.75,246.73 65.98,245.57 "/>
<polygon class="st9" points="59.28,247.75 55.01,247.75 50.75,233.67 55.01,233.67 "/>
<polygon class="st9" points="55.01,210.41 58.45,210.43 66.11,233.67 62.53,234.5 "/>
<polygon class="st9" points="60.56,225.74 47.96,227.99 47.12,224.7 60.56,222.46 "/>
<polygon class="st9" points="65.27,233.91 50.75,235.59 50.75,233.67 65.27,231.99 "/>
<polygon class="st9" points="59.28,218.93 67.82,218.09 67.82,219.8 59.28,221.47 "/>
<polygon class="st9" points="65.27,210.41 57,211.96 55.01,210.41 65.27,208.49 "/>
<polygon class="st9" points="49.04,217.62 20.58,221.62 20.58,219.78 48.2,215.78 "/>
<polygon class="st9" points="44.13,223.21 40.27,223.21 37.09,211.96 40.27,211.96 "/>
<polygon class="st9" points="43.93,204.25 34.81,205.5 33.46,200.17 43.07,198.89 "/>
<polygon class="st9" points="43.07,198.89 53.84,197.61 54.18,198.91 43.07,200.58 "/>
<polygon class="st9" points="54.18,198.91 50.75,199.05 49.04,192.91 52.77,192.91 "/>
<polygon class="st9" points="79.55,236.65 76.14,236.65 72.72,225.22 75.49,225.22 "/>
<polygon class="st9" points="79.55,236.65 70.36,237.42 69.52,235.59 78.89,234.5 "/>
<polygon class="st9" points="77.15,241.99 71.19,241.99 69.52,235.59 74.64,235.59 "/>
<polygon class="st9" points="73.11,246.91 65.27,247.75 63.6,240.71 70.61,239.87 "/>
<polygon class="st9" points="91.05,249.97 86.73,249.97 82.55,237.95 86.88,237.95 "/>
<polygon class="st9" points="91.05,249.97 79.55,250.75 79.55,247.75 89.15,246.91 "/>
<polygon class="st9" points="97.47,220.62 83.39,222.46 80.88,215.78 95.55,214.25 "/>
<polygon class="st9" points="84.24,217.58 76.14,218.35 74.54,213.4 82.55,212.79 "/>
<polygon class="st9" points="82.55,214.25 67.82,215.09 67.82,213.63 82.55,212.79 "/>
<polygon class="st9" points="83.61,215.78 79.39,215.57 77.22,207.21 80.24,207.21 "/>
<polygon class="st9" points="93.2,208.49 89.18,208.49 87.18,202.2 91.05,202.2 "/>
<polygon class="st9" points="107.15,212.96 83.61,215.78 84.24,217.58 108.38,215.09 "/>
<polygon points="108.38,215.09 104.51,215.09 99.39,200.58 102.17,200.58 "/>
<polygon points="99.39,200.58 107.71,199.74 108.38,201.36 99.96,202.2 "/>
<polygon points="108.38,200.97 105.59,200.97 101.1,191.63 103.89,191.63 "/>
<polygon class="st9" points="99.61,225.22 95.34,225.22 93.2,218.35 96.67,215.78 "/>
<polygon class="st9" points="96.41,222.86 115.84,220.5 116.67,222.86 95.34,225.22 "/>
<polygon class="st9" points="113.05,227.16 102.38,227.99 101.1,223.21 111.4,222.46 "/>
<polygon class="st9" points="114.11,231.99 110.06,231.99 108.39,225.22 111.73,223.41 "/>
<polygon class="st9" points="34.81,179.9 27.26,180.83 25.36,176.49 33.46,175.32 "/>
<polygon class="st9" points="25.36,176.49 28.77,176.49 31.54,185.23 28.45,185.23 "/>
<polygon class="st9" points="49.04,186.94 47.12,186.94 41.79,169.91 44.13,169.91 "/>
<polygon class="st9" points="47.12,182.56 52.77,182.56 51.61,178.07 45.41,178.43 "/>
<polygon class="st9" points="11.5,218.71 7.89,218.71 4.28,204.41 7.89,204.41 "/>
<polygon class="st9" points="57.1,229.08 54.33,229.08 52.07,221.82 54.85,221.82 "/>
<polygon class="st9" points="8.98,213.94 16.61,213.1 15.77,210.66 8.98,211.49 "/>
<polygon class="st9" points="0.51,206.99 8.14,206.15 7.3,203.7 0.51,204.54 "/>
<polygon class="st9" points="107.07,243.81 103.02,243.81 100.25,235.59 103.89,235.59 "/>
<polygon class="st9" points="39.12,172.86 35.06,172.86 33.68,165.91 37.32,165.91 "/>
<rect x="36.4" y="170.02" class="st9" width="6.67" height="2.84"/>
<polygon class="st9" points="85.28,200.58 81.06,200.58 79.39,194.41 83.61,194.41 "/>
<polygon class="st9" points="79.39,194.41 93.2,192.91 93.2,195.24 82.33,195.98 "/>
<polygon class="st9" points="74.54,201.36 85.28,200.58 85.3,198.89 74.54,199.74 "/>
<polygon class="st9" points="46.44,192.91 43.12,192.91 40.61,186.94 43.93,186.94 "/>
<polygon class="st9" points="49.04,186.94 33.46,188.29 33.46,186.94 48.62,185.49 "/>
<rect x="22.97" y="209.1" transform="matrix(0.9877 -0.1564 0.1564 0.9877 -32.6257 6.5556)" class="st9" width="4.78" height="3.13"/>
<rect x="21.63" y="200.63" transform="matrix(0.9877 -0.1564 0.1564 0.9877 -31.3189 6.242)" class="st9" width="4.78" height="3.13"/>
<rect x="21.63" y="167.82" transform="matrix(0.9877 -0.1564 0.1564 0.9877 -26.1887 5.8385)" class="st9" width="4.78" height="3.13"/>
<rect x="46.23" y="164.36" transform="matrix(0.9877 -0.1564 0.1564 0.9877 -25.3451 9.643)" class="st9" width="4.78" height="3.13"/>
<rect x="31.08" y="191.35" transform="matrix(0.9877 -0.1564 0.1564 0.9877 -29.7516 7.605)" class="st9" width="4.78" height="3.13"/>
<rect x="52.63" y="188.52" transform="matrix(0.9877 -0.1564 0.1564 0.9877 -29.0441 10.9395)" class="st9" width="4.78" height="3.13"/>
<rect x="46.7" y="206.93" transform="matrix(0.9877 -0.1564 0.1564 0.9877 -31.9952 10.2402)" class="st9" width="4.78" height="3.13"/>
<rect x="60.1" y="195.19" transform="matrix(0.9877 -0.1564 0.1564 0.9877 -29.9951 12.19)" class="st9" width="4.78" height="3.13"/>
<rect x="70.33" y="203.94" transform="matrix(0.9877 -0.1564 0.1564 0.9877 -31.2369 13.898)" class="st9" width="4.78" height="3.13"/>
<rect x="90.82" y="227.52" transform="matrix(0.9877 -0.1564 0.1564 0.9877 -34.6713 17.3905)" class="st9" width="4.78" height="3.13"/>
<rect x="97" y="245.35" transform="matrix(0.9877 -0.1564 0.1564 0.9877 -37.3835 18.5772)" class="st9" width="4.78" height="3.13"/>
<rect x="108.86" y="243.06" transform="matrix(0.9877 -0.1564 0.1564 0.9877 -36.8804 20.4034)" class="st9" width="4.78" height="3.13"/>
<rect x="117.7" y="237.22" transform="matrix(0.9877 -0.1564 0.1564 0.9877 -35.8585 21.7132)" class="st9" width="4.78" height="3.13"/>
<path class="st11" d="M126.28,201.36c-10.88,22.05,4.46,30.63,10.45,30.63"/>
<path class="st10" d="M176.96,287.7c0-5.57,7.41-11.36,14.81-10.08"/>
<path class="st10" d="M217.3,289.1c-2.51-1.76-15.11-7.96-25.53-11.48"/>
<text transform="matrix(1.1428 -0.1551 0.1345 0.9909 117.3453 58.2472)" class="st12 st13">Scanning </text>
<text transform="matrix(1.5655 -0.2209 0.1397 0.9902 118.3787 70.8836)" class="st14 st12 st15">QR-CODE</text>
<line class="st16" x1="158.39" y1="288.5" x2="167.51" y2="287.7"/>
<g id="XMLID_2_">
	<g>
		<path d="M113.04,259.48c4.94-7.68,12.17-15.26,30.87-11.15l-0.29,1.63c-13.48-4.4-21.61,0.79-26.95,7.17
			c-10.66,16.65,2.96,30.56,6.62,30.56l-0.45,1.87C114.11,284.23,107.07,272.42,113.04,259.48z"/>
	</g>
	<g>
		<path class="st2" d="M143.62,249.96c-13.48-4.4-21.61,0.79-26.95,7.17"/>
		<path class="st2" d="M116.67,257.13c-10.66,16.65,2.96,30.56,6.62,30.56"/>
		<path class="st2" d="M113.04,259.48c4.94-7.68,12.17-15.26,30.87-11.15"/>
		<path class="st2" d="M113.04,259.48c-5.97,12.94,1.07,24.75,9.79,30.08"/>
		<line class="st2" x1="122.84" y1="289.57" x2="123.29" y2="287.69"/>
		<line class="st2" x1="143.62" y1="249.96" x2="143.91" y2="248.34"/>
	</g>
</g>
<path class="st17" d="M65.44,48.99c-5.57-19.2-3.36-28.04,13.68-28.68"/>
<line class="st17" x1="65.44" y1="48.99" x2="77.57" y2="77.7"/>
<line class="st17" x1="217.88" y1="17.35" x2="241.58" y2="60.9"/>
<path class="st17" d="M217.88,17.35c-1.46-4.43-8.07-9.73-19.54-8.17"/>
<line class="st17" x1="79.12" y1="20.31" x2="198.34" y2="9.18"/>
<g id="XMLID_1_">
	<g>
		<path d="M216.41,18.55c-2.61-4.07-5.7-6.08-8.77-6.97l0.5-1.79c3.79,1.09,7.55,3.35,9.73,7.55L288,145.8l-0.32,5.57L216.41,18.55z
			"/>
		<path d="M198.34,11.35l-44.97,4.8c-1.86,0-3.36,1.07-3.36,2.4c0,8.8-10.21,8.8-15.77,2.4c-0.84-1.28-2.68-1.28-6-1.28l-40.16,4.16
			c-17.6,1.6-21.76,6.88-14.57,24.33l93.99,239.54l-9.12,0.8L64.4,43.35c-4.48-12.58,1.92-21.33,10.67-22.4L198.34,9.18
			c2.28-0.43,6.06-0.48,9.81,0.61l-0.5,1.79C204.31,10.6,201,10.94,198.34,11.35z"/>
	</g>
	<g>
		<path class="st2" d="M73.52,48.16c-7.19-17.45-3.03-22.73,14.57-24.33"/>
		<path class="st2" d="M134.24,20.95c5.56,6.4,15.77,6.4,15.77-2.4"/>
		<path class="st2" d="M134.24,20.95c-0.84-1.28-2.68-1.28-6-1.28"/>
		<line class="st2" x1="88.08" y1="23.83" x2="128.25" y2="19.67"/>
		<line class="st2" x1="153.37" y1="16.15" x2="198.34" y2="11.35"/>
		<path class="st2" d="M150.01,18.55c0-1.33,1.5-2.4,3.36-2.4"/>
		<path class="st2" d="M198.34,11.35c2.66-0.41,5.97-0.74,9.31,0.23c3.07,0.89,6.16,2.9,8.77,6.97"/>
		<line class="st2" x1="73.52" y1="48.16" x2="167.5" y2="287.69"/>
		<line class="st2" x1="216.41" y1="18.55" x2="287.68" y2="151.37"/>
		<line class="st2" x1="158.39" y1="288.5" x2="64.4" y2="43.35"/>
		<path class="st2" d="M64.4,43.35c-4.48-12.58,1.92-21.33,10.67-22.4"/>
		<line class="st2" x1="75.07" y1="20.95" x2="198.34" y2="9.18"/>
		<path class="st2" d="M198.34,9.18c2.28-0.43,6.06-0.48,9.81,0.61c3.79,1.09,7.55,3.35,9.73,7.55"/>
		<line class="st2" x1="217.88" y1="17.35" x2="288" y2="145.8"/>
		<line class="st5" x1="287.68" y1="151.37" x2="288" y2="145.8"/>
		<line class="st5" x1="158.39" y1="288.5" x2="167.5" y2="287.69"/>
	</g>
</g>
<circle class="st18" cx="142.96" cy="19.75" r="3.24"/>
</svg>
