<?xml version="1.0" encoding="utf-8"?>
<!-- Generator: Adobe Illustrator 24.1.2, SVG Export Plug-In . SVG Version: 6.00 Build 0)  -->
<svg version="1.1" id="Layer_1" xmlns="http://www.w3.org/2000/svg" xmlns:xlink="http://www.w3.org/1999/xlink" x="0px" y="0px"
	 viewBox="0 0 288 288" style="enable-background:new 0 0 288 288;" xml:space="preserve">
<style type="text/css">
	.st0{fill:#F6EDD5;}
	.st1{fill:none;stroke:#000000;stroke-miterlimit:10;}
	.st2{fill:none;stroke:#000000;stroke-width:2;stroke-miterlimit:10;}
	.st3{fill:none;stroke:#000000;stroke-width:7;stroke-miterlimit:10;}
	.st4{fill:#F4ECD6;}
	.st5{fill:none;stroke:#F4ECD6;stroke-width:0.5;stroke-miterlimit:10;}
</style>
<path id="_x31_._1_" class="st0" d="M277.32,287.4H10.07C4.53,287.4,0,282.86,0,277.32V10.07C0,4.53,4.53,0,10.07,0h267.25
	c5.54,0,10.07,4.53,10.07,10.07v267.25C287.4,282.86,282.86,287.4,277.32,287.4z"/>
<g id="XMLID_5_">
	<g>
		<path d="M202.72,205.55l21.86-19.29c0,12.13-4.66,15.6-7.96,21.95c0,0-4.74-1.05-10.37,0L202.72,205.55z"/>
		<path d="M72.17,51.32L0.31,90.12V79.19l66.93-34.94c3.71-1.55,5.65-1.63,7.42,1.18l54.79,84.68c4.53-7.2,1.15-7.67,14.24-16.27
			c1.63-2.33,2.67-4.67,5.97-4.67c12.06-8.84,20.02-10.85,38.66,2.33c13.11,9.16,36.01,29.58,45.02,38.5
			c-0.58,3.16-1.29,3.46-1.61,6.31l-9.16,0.36l-6.92-0.72c-5.63-1.37-9.29-3.64-18.57-4.99c-5.06-2.09-11.65-6.83-17.52-10.61
			c-1.6-1.24-2.65-2.81-6.99-1.93c-2.09,0.33-2.95,1.37-6.59,1.37c0-0.27-3.38-2.61-5.71-0.48l-19.45-4.27
			c0,0.04-5.47-1.13-6.91,0.08l-91.32,64.63c15.97,6.75,22.84,12.22,31.95,16.08l16.61,9.32c13.45,5.15,19.89,8.68,26.9,10.29
			l25.66,8.03c9.5,4.18,14.56,1.69,16.57,0l7.72-8.03c1.76,2.66,4.24,4.01,8.48,5.32c3.09,3.86,8.14,8.37,14.91,12.55
			c6.35,3.44,9.88,5.11,15.19,6.88c-2.26,6.56-0.46,10.66,3.06,19.29l3.22,7.89H39.37l-11.9-4.03l-17.11-9
			c-5.56,0-5.02-3.22-10.05-6.43l0.39-68.17c7.48-2.25,12.63-7.4,29.02-4.51L0.31,151.43v-12.64l34.56,53.37l88.96-60.88
			L72.17,51.32z"/>
	</g>
	<g>
		<path class="st1" d="M74.53,215.85c-9.11-3.86-15.98-9.33-31.95-16.08"/>
		<path class="st1" d="M118.04,235.46c-7.01-1.61-13.45-5.15-26.9-10.29"/>
		<line class="st1" x1="91.14" y1="225.17" x2="74.53" y2="215.85"/>
		<line class="st1" x1="143.7" y1="243.49" x2="118.04" y2="235.46"/>
		<path class="st1" d="M160.27,243.49c-2.01,1.69-7.07,4.18-16.57,0"/>
		<line class="st1" x1="168" y1="235.46" x2="160.27" y2="243.49"/>
		<path class="st1" d="M0.7,199.77c7.48-2.25,12.63-7.4,29.02-4.51"/>
		<path class="st1" d="M0.31,267.93c5.03,3.22,4.49,6.43,10.05,6.43"/>
		<line class="st1" x1="10.36" y1="274.37" x2="27.48" y2="283.37"/>
		<line class="st1" x1="27.48" y1="283.37" x2="39.37" y2="287.4"/>
		<line class="st1" x1="0.7" y1="199.77" x2="0.31" y2="267.93"/>
		<path class="st1" d="M168,235.46c1.76,2.66,4.24,4.01,8.48,5.32"/>
		<path class="st1" d="M176.48,240.78c3.09,3.86,8.14,8.37,14.91,12.55"/>
		<path class="st1" d="M206.57,260.22c-5.31-1.77-8.84-3.44-15.19-6.88"/>
		<path class="st1" d="M206.57,260.22c-2.26,6.56-0.46,10.66,3.06,19.29"/>
		<line class="st1" x1="209.63" y1="279.5" x2="212.85" y2="287.4"/>
		<line class="st1" x1="42.59" y1="199.77" x2="133.91" y2="135.14"/>
		<line class="st1" x1="0.31" y1="151.43" x2="29.73" y2="195.26"/>
		<line class="st1" x1="0.31" y1="138.78" x2="34.87" y2="192.15"/>
		<line class="st1" x1="34.87" y1="192.15" x2="123.83" y2="131.28"/>
		<line class="st1" x1="72.17" y1="51.32" x2="123.83" y2="131.28"/>
		<line class="st1" x1="0.31" y1="90.12" x2="72.17" y2="51.32"/>
		<line class="st1" x1="0.31" y1="79.19" x2="67.25" y2="44.25"/>
		<line class="st1" x1="74.67" y1="45.43" x2="129.46" y2="130.11"/>
		<path class="st1" d="M67.25,44.25c3.71-1.55,5.65-1.63,7.42,1.18"/>
		<path class="st1" d="M129.46,130.11c4.53-7.2,1.15-7.67,14.24-16.27"/>
		<path class="st1" d="M143.7,113.84c1.63-2.33,2.67-4.67,5.97-4.67"/>
		<path class="st1" d="M149.67,109.17c12.06-8.84,20.02-10.85,38.66,2.33"/>
		<path class="st1" d="M233.35,150.01c-9.01-8.92-31.91-29.34-45.02-38.5"/>
		<path class="st1" d="M140.82,135.05c0,0.04-5.47-1.13-6.91,0.08"/>
		<line class="st1" x1="140.82" y1="135.05" x2="160.27" y2="139.32"/>
		<line class="st1" x1="202.72" y1="205.55" x2="224.58" y2="186.26"/>
		<path class="st1" d="M224.58,186.26c0,12.13-4.66,15.6-7.96,21.95"/>
		<path class="st1" d="M216.62,208.21c0,0-4.74-1.05-10.37,0"/>
		<line class="st1" x1="206.26" y1="208.21" x2="202.72" y2="205.55"/>
		<path class="st1" d="M165.98,139.8c0-0.27-3.38-2.61-5.71-0.48"/>
		<path class="st1" d="M179.57,140.36c-1.6-1.24-2.65-2.81-6.99-1.93"/>
		<path class="st1" d="M172.57,138.43c-2.09,0.33-2.95,1.37-6.59,1.37"/>
		<path class="st1" d="M197.09,150.97c-5.06-2.09-11.65-6.83-17.52-10.61"/>
		<path class="st1" d="M215.66,155.96c-5.63-1.37-9.29-3.64-18.57-4.99"/>
		<line class="st1" x1="222.58" y1="156.68" x2="215.66" y2="155.96"/>
		<path class="st1" d="M233.35,150.01c-0.58,3.16-1.29,3.46-1.61,6.31"/>
		<line class="st1" x1="222.58" y1="156.68" x2="231.74" y2="156.32"/>
		<line class="st1" x1="0.31" y1="138.78" x2="0.31" y2="151.43"/>
		<line class="st1" x1="0.31" y1="79.19" x2="0.31" y2="90.12"/>
		<line class="st1" x1="39.37" y1="287.4" x2="212.85" y2="287.4"/>
	</g>
</g>
<g id="XMLID_6_">
	<g>
		<path d="M287.39,10.07v46.61c-15.82-9.95-27.92-25.33-27.92-56.65h17.89C282.91,0.03,287.39,4.53,287.39,10.07z"/>
	</g>
	<g>
		<path class="st2" d="M259.47,0.03c0,31.32,12.11,46.7,27.92,56.65"/>
		<path class="st2" d="M287.39,10.07c0-5.55-4.48-10.04-10.03-10.04"/>
		<line class="st2" x1="259.47" y1="0.03" x2="277.36" y2="0.03"/>
		<line class="st2" x1="287.39" y1="10.07" x2="287.39" y2="56.68"/>
	</g>
</g>
<line class="st2" x1="143.13" y1="215.84" x2="145.91" y2="208.56"/>
<path class="st2" d="M145.91,208.56c9.43-12.65,10.72-15.76,25.62-16.72"/>
<path class="st2" d="M178.07,194.19c-3.27-2.04-2.92-2.36-6.54-2.36"/>
<line class="st2" x1="178.07" y1="194.19" x2="185.68" y2="197.94"/>
<line class="st2" x1="185.68" y1="197.94" x2="195.43" y2="201.59"/>
<line class="st2" x1="195.43" y1="201.59" x2="199.07" y2="203.41"/>
<line class="st2" x1="199.07" y1="203.41" x2="206.26" y2="208.21"/>
<line class="st2" x1="143.13" y1="215.84" x2="143.7" y2="217.99"/>
<line class="st2" x1="143.7" y1="217.99" x2="151.27" y2="224.63"/>
<line class="st2" x1="151.27" y1="224.63" x2="158.24" y2="229.35"/>
<line class="st2" x1="158.24" y1="229.35" x2="162.2" y2="232.35"/>
<line class="st2" x1="162.2" y1="232.35" x2="167.99" y2="235.46"/>
<path class="st2" d="M224.58,187.3c0-12.14,4.39-17,5.89-23.01"/>
<path class="st2" d="M236.05,144.35c-2.71,8.36-4.31,11.96-5.57,19.94"/>
<path class="st2" d="M228.35,170.07c0-5.62,0-8.35-1.19-10.17"/>
<line class="st2" x1="227.16" y1="159.9" x2="224.58" y2="156.6"/>
<line class="st2" x1="236.05" y1="144.35" x2="237.23" y2="134.49"/>
<line class="st2" x1="239.59" y1="112.84" x2="237.23" y2="134.49"/>
<line class="st2" x1="239.59" y1="112.84" x2="242.48" y2="90.66"/>
<path class="st2" d="M242.48,90.66c1.55-22.56,6.38-26.9,16.18-39.12"/>
<path class="st2" d="M288,30.09c-10.77,7.07-22.74,11.39-29.33,21.44"/>
<path class="st2" d="M230.48,213.91c-4.61-4.25-6.2-5.71-13.85-5.71"/>
<line class="st2" x1="230.48" y1="213.91" x2="234.71" y2="218.74"/>
<path class="st2" d="M216.62,272.11c-2.17-4.02-5.39-6.59-10.05-11.9"/>
<path class="st2" d="M216.62,272.11c3.98,8.36,10.21,10.13,13.85,15.28"/>
<path class="st2" d="M234.71,218.74c1.15-2.41,2.3-3.38,2.3-6.75"/>
<path class="st2" d="M235.86,163.11c0,27.01,0,23.15,1.15,48.87"/>
<path class="st2" d="M237.48,132.22c0,17.07-2.07,21.24-1.61,30.89"/>
<path class="st2" d="M174.8,176.29c9.97,5.32,18.72,3.64,36.64,1.71"/>
<line class="st2" x1="211.44" y1="178.01" x2="225.67" y2="177.71"/>
<path class="st2" d="M174.8,176.29c-5.52-2.25-10.09-4.82-23.1-6.97"/>
<path class="st2" d="M143.7,162.36c0,3.85,2.99,5.43,8,6.97"/>
<line class="st2" x1="152.38" y1="169.44" x2="152.38" y2="169.44"/>
<path class="st2" d="M143.7,162.36c0.82-2.89,4.68-2.47,10.47-2.47"/>
<path class="st2" d="M169.28,164.29c-5.04-1.93-7.56-3.37-15.11-4.39"/>
<path class="st2" d="M143.7,162.36c-1.64,2.62-2.83,7.71-6.33,7.71"/>
<path class="st2" d="M150.55,155.5c-1.08,2.75-1.67,3.22-3.35,4.53"/>
<path class="st2" d="M163.7,153.46c-1.07,2.04-7.72,2.49-13.16,2.04"/>
<path class="st2" d="M163.7,153.46c2.28,1.76,3.91,2.49,7.82,2.49"/>
<path class="st2" d="M171.53,155.96c0,4.61,1.93,5.16,1.04,8.33"/>
<line class="st2" x1="169.28" y1="164.29" x2="172.57" y2="164.29"/>
<path class="st2" d="M143.13,215.84c-6.43-4.18-12.26-9.65-18.97-14.68"/>
<path class="st2" d="M142.05,146.34c1.39-3.35,4.92-5.97,9.65-5.97"/>
<path class="st2" d="M133.91,159.87c0.74-4.37,5.79-10.8,8.14-13.54"/>
<path class="st2" d="M144.52,151.43c1.39-2.89,3.52-5.09,7.86-5.09"/>
<path class="st2" d="M144.52,151.43c-3.32,5.33-7.15,6.34-7.94,10.66"/>
<path class="st2" d="M133.91,168.79c0-3.7,2.14-4.5,2.67-6.7"/>
<path class="st2" d="M133.91,159.87c-4.45,6.88,0,8.92,0,8.92"/>
<path class="st2" d="M160.27,139.32c-2.24,0.7-3.84,1.05-8.57,1.05"/>
<path class="st2" d="M162.2,144.89c0,0.81-4.7,1.47-10.5,1.47"/>
<path class="st2" d="M184.07,162.36c-4.5,0-9.75,1.87-11.5,1.93"/>
<path class="st2" d="M170.93,191.83c-9.2-7.18-15.69-19.02-25.01-19.02"/>
<path class="st2" d="M128.55,172.81c0-1.93,2.4-3.48,5.36-3.48"/>
<path class="st2" d="M145.91,172.81c-3.87-0.59-6-2.42-12-3.48"/>
<path class="st2" d="M125.55,171.07c-2.04-0.56-4.39-1-7.51,1.74"/>
<line class="st2" x1="132.92" y1="174.79" x2="125.55" y2="171.07"/>
<line class="st2" x1="119.76" y1="178.08" x2="129.23" y2="182.94"/>
<path class="st2" d="M139.05,176.29c-1.69,0-3.81-0.75-6.13-1.5"/>
<path class="st2" d="M112.47,180.51c-0.44-3.15,1.82-3.85,5.57-7.7"/>
<path class="st2" d="M115.23,179.4c1.77-1.82,2.03-1.32,4.53-1.32"/>
<line class="st2" x1="110.54" y1="184.01" x2="115.23" y2="179.4"/>
<line class="st2" x1="112.47" y1="180.51" x2="112.42" y2="182.32"/>
<line class="st2" x1="133.91" y1="168.79" x2="134.51" y2="169.44"/>
<line class="st2" x1="119.76" y1="188.73" x2="129.23" y2="193.01"/>
<line class="st2" x1="118.69" y1="197.62" x2="124.16" y2="201.16"/>
<path class="st2" d="M110.54,184.01c-2.36,4.72-0.97,5.57,0.64,7.82"/>
<line class="st2" x1="111.19" y1="191.83" x2="115.23" y2="189.16"/>
<path class="st2" d="M115.23,189.16c0-0.24,2.27-2.04,4.53-0.43"/>
<path class="st2" d="M110.24,195.26c0,2.28,1.72,4.13,3.84,4.13"/>
<path class="st2" d="M111.19,191.83c-0.95,1.18-0.95,1.71-0.95,3.43"/>
<path class="st2" d="M118.69,197.62c-1.69-0.75-2.06,1.77-4.61,1.77"/>
<g id="XMLID_7_">
	<g>
		<path d="M62.73,141.53c4.12,6.28,0.46,15.96-8.19,21.64l-0.04,0.03c-8.66,5.68-18.99,5.2-23.12-1.08
			c-4.19-7.29-2.38-12.19-1.39-15.57c0.31-5.56-8.21-12.49,1.26-18.72l0.05-0.03c9.47-6.23,12.46,4.35,17.68,6.26
			C52.48,134.5,57.69,134.79,62.73,141.53z"/>
	</g>
	<g>
		<path class="st3" d="M31.25,127.83c-9.47,6.23-0.95,13.16-1.26,18.72"/>
		<path class="st3" d="M29.99,146.56c-1,3.38-2.8,8.28,1.39,15.57"/>
		<path class="st3" d="M31.38,162.12c4.13,6.28,14.47,6.77,23.12,1.08"/>
		<path class="st3" d="M31.3,127.81c9.47-6.23,12.46,4.35,17.68,6.26"/>
		<path class="st3" d="M48.99,134.07c3.49,0.43,8.71,0.72,13.74,7.46"/>
		<path class="st3" d="M62.73,141.53c4.12,6.28,0.46,15.96-8.19,21.64"/>
	</g>
</g>
<path class="st3" d="M31.26,127.84c-5.46-8.3-4.66-18.45,1.79-22.68"/>
<path class="st3" d="M31.38,103.41c4.43,6.74,7.35,19.52-0.12,24.43"/>
<path class="st3" d="M31.26,127.84c-4.64-7.06-9.89-9.03-13.91-9.14"/>
<path class="st4" d="M27.65,112.31c0.81-3.26,2.96-6.17,5.83-7.92c0.17,1.56,1.2,2.89,1.66,4.4c0.34,1.09,0.38,2.25,0.41,3.39
	c0.04,1.3,0.08,2.6,0.13,3.9c0.09,2.66-1.46,8.07-5.25,6.87C26.92,121.83,26.96,115.09,27.65,112.31z"/>
<polygon points="80.01,67.93 0.7,113.76 0.7,98.16 73.14,57 "/>
<polygon points="116.38,126.99 94.04,143.35 59.48,87.77 82.84,74.04 "/>
<line class="st5" x1="64.42" y1="91.3" x2="82.84" y2="80.8"/>
<line class="st5" x1="67.24" y1="94.3" x2="85.36" y2="84.65"/>
<line class="st5" x1="68.96" y1="98.16" x2="87.93" y2="87.77"/>
<line class="st5" x1="71.14" y1="101.37" x2="89.55" y2="90.87"/>
<line class="st5" x1="73.96" y1="104.38" x2="92.07" y2="94.73"/>
<line class="st5" x1="75.67" y1="108.23" x2="94.65" y2="97.85"/>
<line class="st5" x1="77.86" y1="111.45" x2="96.27" y2="100.95"/>
<line class="st5" x1="80.68" y1="114.45" x2="98.79" y2="104.8"/>
<line class="st5" x1="82.39" y1="118.31" x2="101.37" y2="107.92"/>
<line class="st1" x1="73.43" y1="215.36" x2="144.52" y2="239.48"/>
<line class="st1" x1="160.27" y1="238.12" x2="165.1" y2="233.9"/>
<line class="st1" x1="209.63" y1="195.26" x2="224.97" y2="181.42"/>
<line class="st1" x1="163.13" y1="184.46" x2="173.59" y2="175.79"/>
<line class="st1" x1="190.55" y1="179.87" x2="211.44" y2="186.26"/>
<path class="st1" d="M160.27,238.12c-3.15,3.55-8.57,4.2-15.76,1.35"/>
<path class="st1" d="M207.3,195.43c2.25-1.61,3.09,0.43,1.81,1.81"/>
<line class="st1" x1="207.3" y1="195.43" x2="198.48" y2="203.11"/>
<line class="st1" x1="209.11" y1="197.23" x2="201" y2="204.69"/>
<line class="st1" x1="62.73" y1="202.5" x2="143.13" y2="144.35"/>
<line class="st1" x1="72.6" y1="205.81" x2="133.91" y2="159.87"/>
<line class="st1" x1="82.84" y1="208.5" x2="110.71" y2="186.26"/>
<line class="st1" x1="91.14" y1="211.06" x2="110.24" y2="195.26"/>
<line class="st1" x1="100.69" y1="213.91" x2="119.95" y2="198.44"/>
<line class="st1" x1="58.56" y1="200.19" x2="140.53" y2="141.53"/>
<line class="st1" x1="58.56" y1="200.19" x2="100.69" y2="213.91"/>
<line class="st1" x1="64.42" y1="195.26" x2="78.81" y2="201.16"/>
<line class="st1" x1="70.67" y1="190.92" x2="84.87" y2="196.62"/>
<line class="st1" x1="76.82" y1="186.66" x2="91.14" y2="191.92"/>
<line class="st1" x1="83.07" y1="182.32" x2="97.13" y2="187.43"/>
<line class="st1" x1="89.67" y1="177.92" x2="102.93" y2="183.09"/>
<line class="st1" x1="95.92" y1="173.58" x2="108.41" y2="178.98"/>
<line class="st1" x1="101.17" y1="169.25" x2="114.08" y2="174.73"/>
<line class="st1" x1="107.42" y1="164.91" x2="112.5" y2="166.51"/>
<line class="st1" x1="113.21" y1="161.12" x2="118.04" y2="162.64"/>
<line class="st1" x1="119.99" y1="156.95" x2="123.98" y2="158.2"/>
<line class="st1" x1="124.5" y1="152.69" x2="129.23" y2="154.18"/>
<line class="st1" x1="130.75" y1="148.35" x2="135.24" y2="149.76"/>
<line class="st1" x1="135.24" y1="144.96" x2="141.03" y2="146.78"/>
<line class="st1" x1="140.23" y1="141.53" x2="144.57" y2="142.89"/>
<line class="st1" x1="111.19" y1="167.17" x2="119.76" y2="170.47"/>
<line class="st1" x1="117.1" y1="163.18" x2="125.45" y2="166.21"/>
<line class="st1" x1="121.8" y1="159.78" x2="130.59" y2="162.36"/>
<line class="st1" x1="127.39" y1="155.96" x2="133.91" y2="157.76"/>
<line class="st1" x1="132.35" y1="152.15" x2="135.99" y2="153.46"/>
<line class="st1" x1="82.44" y1="198.44" x2="92.04" y2="201.16"/>
<line class="st1" x1="88.25" y1="193.77" x2="97.63" y2="196.7"/>
<line class="st1" x1="94.65" y1="189.29" x2="103.73" y2="191.83"/>
<line class="st1" x1="100.19" y1="185.14" x2="108.98" y2="187.65"/>
<line class="st1" x1="106.02" y1="180.77" x2="111.73" y2="182.84"/>
<line class="st1" x1="122.64" y1="168.31" x2="129.47" y2="170.86"/>
<line class="st1" x1="128.55" y1="163.89" x2="131.94" y2="165.44"/>
<line class="st1" x1="92.94" y1="200.44" x2="101.42" y2="202.56"/>
<line class="st1" x1="98.66" y1="195.87" x2="106.67" y2="198.21"/>
<line class="st1" x1="104.58" y1="191.83" x2="110.32" y2="193.01"/>
<line class="st1" x1="104.28" y1="200.19" x2="113.21" y2="203.85"/>
<line class="st1" x1="143.13" y1="171.73" x2="146.87" y2="167.45"/>
<line class="st1" x1="140.82" y1="166.65" x2="146.3" y2="168.11"/>
<line class="st1" x1="152.38" y1="174.15" x2="155.99" y2="170.07"/>
<line class="st1" x1="157.68" y1="160.47" x2="164.13" y2="153.79"/>
<line class="st1" x1="153.56" y1="172.81" x2="163.7" y2="176.5"/>
<line class="st1" x1="167.18" y1="173.17" x2="159.34" y2="180.5"/>
<line class="st1" x1="160.27" y1="158.25" x2="168.36" y2="161.12"/>
<line class="st1" x1="165.98" y1="162.98" x2="171.72" y2="158.25"/>
<line class="st1" x1="149.96" y1="156.86" x2="163.13" y2="162.12"/>
<polygon points="100.69,215.04 58.56,201.48 58.56,200.19 100.69,213.91 "/>
<polygon points="121.27,198.44 100.69,215.04 100.69,213.91 119.95,198.44 "/>
</svg>
