<?xml version="1.0" encoding="utf-8"?>
<!-- Generator: Adobe Illustrator 24.1.2, SVG Export Plug-In . SVG Version: 6.00 Build 0)  -->
<svg version="1.1" id="Layer_1" xmlns="http://www.w3.org/2000/svg" xmlns:xlink="http://www.w3.org/1999/xlink" x="0px" y="0px"
	 viewBox="0 0 288 288" style="enable-background:new 0 0 288 288;" xml:space="preserve">
<style type="text/css">
	.st0{fill:#F6EDD5;}
	.st1{fill:none;stroke:#000000;stroke-miterlimit:10;}
	.st2{fill:none;stroke:#000000;stroke-width:2;stroke-miterlimit:10;}
	.st3{fill:none;stroke:#F4ECD6;stroke-miterlimit:10;}
	.st4{fill:none;stroke:#000000;stroke-width:0.75;stroke-miterlimit:10;}
	.st5{fill:#F4ECD6;stroke:#F4ECD6;stroke-width:0.25;stroke-miterlimit:10;}
	.st6{fill:#F4ECD6;}
</style>
<path id="_x34_." class="st0" d="M278.01,288.11H10.1c-5.56,0-10.1-4.55-10.1-10.1V10.1C0,4.55,4.55,0,10.1,0h267.91
	c5.55,0,10.1,4.55,10.1,10.1v267.91C288.11,283.57,283.57,288.11,278.01,288.11z"/>
<path class="st1" d="M113.05,186.9c0-1.06,3.52-3.87,7.04-0.9"/>
<path class="st1" d="M113.05,186.9c-0.78,4.96,3.45,5.85,6.18,5.85"/>
<path class="st1" d="M133.82,179.4c-1.24,3.95,0.79,8.95,1.77,8.95"/>
<path class="st1" d="M182.06,105.62c1.51,3.27-0.87,5.47-2.27,5.47"/>
<path class="st1" d="M159.09,107.18c0,3.78,2.94,6.83,6.58,6.83"/>
<path class="st1" d="M161.44,99.86c0,4.04-1.89,3.66-2.35,7.31"/>
<path class="st2" d="M87.81,193.99c-17.87,12.05-18.51,20.43-22.14,41.72"/>
<path class="st2" d="M65.67,235.7c-4.49,25.33-6.59,41.18-8.68,53.21"/>
<path class="st2" d="M288.11,220.58c-3.17-2.5-6.48-6.22-14.49-6.22"/>
<path class="st2" d="M18.8,116.57C25.22,93.36,52,66.5,89.22,76.39"/>
<path class="st2" d="M121.89,119.13c-0.75-21.37-18.35-36.96-32.67-42.73"/>
<path class="st2" d="M18.8,116.57c-8.81,38.25,2.36,58.02,14.71,67.09"/>
<path class="st2" d="M85,187.49c-23.67,10.03-35.26,5.67-51.5-3.83"/>
<path class="st2" d="M85,187.49c1.05,0.95,1.25,6.5,2.81,6.5"/>
<path class="st2" d="M56.89,128.51c2.37-7.96,8.78-11.93,14.9-10.22"/>
<line class="st2" x1="71.79" y1="118.29" x2="113.4" y2="131.25"/>
<line class="st2" x1="62.18" y1="142.9" x2="88.69" y2="164.71"/>
<path class="st2" d="M56.89,128.51c-1.99,7.03,0.56,10.6,5.3,14.39"/>
<line class="st2" x1="157.08" y1="146.44" x2="152.24" y2="144.06"/>
<g id="XMLID_16_">
	<g>
		<path d="M190.28,69.74c9.5-2.43,14.5,1.62,17.25,3.72c2.34,1.47,3.14,1.98,3.14,4.43c-5.97-4.6-7.17-5.91-16.03-5.91
			c-7.9,0.81-8.22,2.95-18.37,2.95c-1.46-2.6,0.98-2.96,4.51-4.08L190.28,69.74z"/>
		<path d="M195.91,82.46c0,0.96-0.37,1.83-0.98,2.49l-5.43-0.04c-0.58-0.65-0.94-1.51-0.94-2.45c0-0.56,0.13-1.08,0.35-1.55
			l6.19-0.75C195.6,80.79,195.91,81.59,195.91,82.46z"/>
		<path d="M182.33,81.76c3.11-4.65,16.12-8.74,21.38,1.66C196.73,74.87,188.17,78.65,182.33,81.76z"/>
		<path d="M188.03,129.15c0.42,0,1.92,2.21,1.62,4.32c-0.08,0.56-0.28,1.11-0.66,1.61c-4.22,0.89-8.53-2.7-10.85,3.53
			c0-2.39-2.61-4.33-5.83-4.33c-4.85,0.8-5.87,3.52-6.63,7.04c-0.66,0-1.28-0.4-1.83-1.14c-1.16-1.52-2.02-4.43-2.31-7.94
			c-0.06-0.8-0.09-1.62-0.09-2.47C164.07,130.71,174.06,132.37,188.03,129.15z"/>
		<path d="M176.46,109.8c0.49,0.79-1.21,1.28-1.78,1.51c-2.08,0.88-4.32,1.37-6.57,1.43c-0.13-0.5,0.13-1.02,0.5-1.37
			c0.37-0.35,0.85-0.56,1.32-0.76c0.72-0.3,1.43-0.61,2.18-0.77c0.56-0.13,1.14-0.19,1.72-0.24
			C174.37,109.55,176.05,109.14,176.46,109.8z"/>
		<path d="M161.05,74.05c0,0.9-0.88,1.62-1.96,1.62c-2.55,1.43-11.03-2.78-17.29,1.43l0.21-1.43c0-0.03,0-0.06,0-0.08
			c0.03-0.12,0.04-0.23,0.06-0.35c0.48-1.83,4.04-3.27,8.37-3.27C156.31,71.98,161.05,72.28,161.05,74.05z"/>
		<path d="M152.48,85.42c-0.2,0.24-1.91,0.42-4.01,0.43C149.56,85.68,150.92,85.53,152.48,85.42z"/>
		<path d="M152.48,85.42c-1.56,0.11-2.91,0.26-4.01,0.43c-0.05,0-0.11,0-0.16,0c-0.83-0.57-1.38-1.54-1.38-2.63
			c0-0.52,0.13-1.02,0.35-1.46c0-0.03,0.01-0.05,0.03-0.08v-0.01c0.13-0.09,0.28-0.19,0.43-0.26c0.8-0.29,2.58-0.5,4.65-0.5
			c0.6,0.58,0.97,1.4,0.97,2.3c0,0.83-0.31,1.59-0.83,2.15C152.5,85.39,152.49,85.4,152.48,85.42z"/>
		<path d="M232.91,195.76c-7-10.16-8.94-19.18-8.94-24.82l-1.29-19.34l1.29-10.29l4.47-21.78l0.18-0.28
			c0.91,0.58,2.1,0.93,3.41,0.93c7.89-0.97,11.46-3.71,13.7-8.22c0.99-2.27,1.54-4.27,1.54-9.54c-1.11-0.4-1.76-1.52-2.31-2.56
			c-0.61-1.14-1.22-2.29-1.58-3.53c-0.19-0.69-0.31-1.4-0.42-2.1c-0.4-2.37-0.78-4.73-1.17-7.1l-0.09,0.02
			c-0.42,3.59-2.96,6.66-6.04,8.55c-1.48,0.91-3.11,1.59-4.76,2.12c-1.3,0.42-2.65,0.75-4.01,0.98h-0.03
			c-0.08-16.24-5.32-20.21-6.44-40.5c-0.96-9.19-25.78-23.85-31.43-23.85c-5.08,0-9.2-3.61-9.2-8.06c-2.49,3.63-2.23,7.26-4.98,7.26
			c-18.21,0.81-29.33,15.47-31.43,35.13c-0.58,2.53-1,4.63-1.3,6.49c-0.03,0.12-0.05,0.23-0.06,0.35c-0.08,0.52-0.15,1.03-0.21,1.52
			c-0.52,3.87-0.52,6.79-0.52,10.83c-3.22,14.5-1.3,21.28,1.09,26.82c1.68,5.41,8.51,18.47,11.67,30.01l-1.79-0.98
			c0-4.32-0.06-6.41-2.74-8.71l-1.52-0.88l-26.1-15.07c3.85-1.42,6.42-4.36,4.89-10.23c-3.22-15.79,1.45-15.31,8.92-34.84
			c4.61-12.06-1.51-21.89,13.8-36.56c7.09-6.93,9.59-19.33,33.84-16.92l4.03-0.65c16.44-4.83,50.12,8.14,62.7,45.61
			c3.81,8.52,8.11,25.94,14.56,37.5c2.9,4.89,10.71,9.11,0.31,24.45c-0.25,2.42,0.24,4.93,1.39,7.09c0.64,1.2,1.46,2.28,2.07,3.49
			c0.77,1.57,1.14,3.29,1.41,5.01c0.17,1.04,0.31,2.09,0.27,3.14c-0.04,0.99-0.24,2.02,0.09,2.96c0.4,1.11,1.45,1.86,2.02,2.89
			c0.23,0.41,0.38,0.86,0.51,1.3c0.53,1.99,0.54,4.13,0.01,6.13c-0.19,0.72-0.48,1.41-0.61,2.15c-0.4,2.32-0.12,4.97,1.01,6.39
			c1.32,1.11,2.71,5.6,1.85,8.86l0.07,0.04c-0.76,1.31-0.71,2.95-0.42,4.43c0.29,1.49,0.79,2.94,0.89,4.45
			c0.08,1.33-0.15,2.68,0.05,4c0.4,2.59,2.4,4.7,2.85,7.28c0.29,1.66-0.1,3.38-0.84,4.89c-0.75,1.51-1.84,2.82-3,4.03
			c-0.33,0.35-0.66,0.68-0.88,1.09c-0.2,0.39-0.29,0.82-0.36,1.25c-0.31,1.99-0.21,4.05,0.29,5.99l-0.03,0.3l-3.05-0.36l-15.48-4.03
			l-12.87-6.61l-9.29-8.7l0.25,0.72L232.91,195.76z"/>
		<path d="M147.29,81.68c0.06-0.09,0.2-0.19,0.43-0.26C147.57,81.49,147.43,81.58,147.29,81.68z"/>
		<path d="M162.24,82.56c-6.49-4.67-13.71-6.17-16.94,1.25C144.62,74.93,159.09,77.11,162.24,82.56z"/>
		<path d="M142.07,75.25c-0.02,0.12-0.03,0.23-0.06,0.35C142.02,75.47,142.04,75.36,142.07,75.25z"/>
		<path d="M106.69,129.15l-2.15-0.74l-6.22-2.14c3.53-2.54,7.96-4.33,17.7-4.33c0,7.02-0.02,12.75-0.04,13.11
			c0.01,0.01,0,0.02,0,0.02C115.1,132.59,111.54,130.86,106.69,129.15z"/>
		<path d="M101.92,259.42c3.22,0.58,2.96,1.35,2.79,2.78l-6.21-3.3L101.92,259.42z"/>
		<path d="M91.53,263.96c0.13-1.07,0.22-2.31,0.22-3.85c0-1-0.64-2.26,2.79-1.83l3.96,0.61l6.21,3.3c-0.03,0.29-0.07,0.6-0.07,0.93
			c0,9.44-3.43,10.1-3.86,17.09v8.7H88.86l0.96-15.15C89.81,269.45,91.02,267.96,91.53,263.96z"/>
		<path d="M98.32,126.27l6.22,2.14c-1.98-0.66-4.12-1.32-6.34-2.05C98.24,126.33,98.27,126.29,98.32,126.27z"/>
		<path d="M82.16,159.34l16.55,12.07c-0.28,0.26-0.58,0.54-0.9,0.82L82.16,159.34L82.16,159.34z"/>
		<path d="M82.16,159.34l15.65,12.89c-1.14,1.04-2.54,2.26-4.35,3.76C87.79,173.62,82.16,169.14,82.16,159.34z"/>
	</g>
	<g>
		<path class="st1" d="M18.79,116.57c-10.53,39.97,5.16,61.68,16.34,68.12"/>
		<path class="st1" d="M118.94,146.44c-1.38,8.78-10.33,23.26-23.65,33.74c-3.27,2.58-6.78,4.9-10.53,6.84
			c-14.27,7.42-31.67,9.28-49.62-2.33"/>
		<path class="st1" d="M85.19,75.09c-35.02-6.44-57.38,18.05-66.4,41.48"/>
		<path class="st1" d="M118.94,146.44c1.93-6.94,2.84-13.38,2.95-19.34c0.05-2.75-0.08-5.4-0.37-7.94
			c-2.82-25.08-20.86-39.97-36.32-44.07"/>
		<path class="st1" d="M112.28,151.64c-1.51,5.2-5.4,11.31-10.86,17.09c-0.42,0.45-0.86,0.9-1.3,1.34
			C88.15,182.11,69.55,192.26,52,188.99"/>
		<path class="st1" d="M115.97,135.05c2.2-22.35-5.18-51.11-38.94-57.17"/>
		<path class="st1" d="M112.28,151.64c1.73-4.6,3.09-10.33,3.69-16.56"/>
		<path class="st1" d="M82.16,159.34L82.16,159.34c0,9.81,5.63,14.28,11.3,16.66"/>
		<polyline class="st1" points="82.16,159.34 98.71,171.41 98.72,171.41 		"/>
		<path class="st1" d="M100.12,170.07c-0.43,0.42-0.89,0.86-1.41,1.34c-0.28,0.26-0.58,0.54-0.9,0.82
			c-1.14,1.04-2.54,2.26-4.35,3.76"/>
		<line class="st1" x1="147.91" y1="134.32" x2="147.99" y2="134.2"/>
		<path class="st1" d="M98.2,126.35c0.04-0.03,0.08-0.06,0.12-0.08c3.53-2.54,7.96-4.33,17.7-4.33"/>
		<path class="st1" d="M104.54,128.41c-1.98-0.66-4.12-1.32-6.34-2.05"/>
		<path class="st1" d="M115.97,135.07c-0.88-2.48-4.44-4.21-9.28-5.93"/>
		<path class="st1" d="M116.02,121.94c0,7.02-0.02,12.75-0.04,13.11c0.01,0.01,0,0.02,0,0.02"/>
		<path class="st1" d="M65.84,118.24c1.94-0.6,3.99-0.62,5.94,0.05c5.67,1.95,8.39,9,6.07,15.74c-2.31,6.75-8.79,10.64-14.46,8.69
			c-5.24-1.8-7.95-7.96-6.51-14.22c0.12-0.51,0.26-1.03,0.44-1.53c1.23-3.58,3.63-6.35,6.45-7.87c0.64-0.35,1.29-0.63,1.96-0.83"/>
		<path class="st1" d="M63.77,119.1c0.73-0.34,1.36-0.61,1.96-0.83c0.03-0.02,0.07-0.03,0.11-0.03c3-1.09,5.34-0.62,15.81,2.31"/>
		<polyline class="st1" points="81.65,120.54 98.32,126.27 104.54,128.41 106.69,129.15 107.11,129.29 		"/>
		<polyline class="st1" points="58.71,140.04 68.51,148.11 82.16,159.34 97.81,172.23 97.82,172.23 		"/>
		<path class="st1" d="M56.89,128.51c-1.19,3.91-1.03,8.59,1.82,11.53"/>
		<line class="st1" x1="69.88" y1="146.44" x2="100.12" y2="167.67"/>
		<line class="st1" x1="81.65" y1="131.94" x2="111.31" y2="145.15"/>
		<polyline class="st1" points="149.51,135.07 147.99,134.2 121.89,119.12 		"/>
		<path class="st1" d="M152.24,144.06c0-0.09,0-0.19,0-0.28c0-4.32-0.06-6.41-2.74-8.71"/>
		<polyline class="st1" points="149.51,142.28 147.74,141.31 121.88,127.1 		"/>
		<polyline class="st1" points="157.08,146.44 154.03,144.77 152.24,143.78 149.52,142.29 		"/>
		<path class="st2" d="M166.59,175.99c0.59-2.77,0.86-5.41,0.87-7.89c0.03-11.72-5.72-19.93-10.38-21.66"/>
		<path class="st2" d="M166.59,175.99c-1.36,4.86-4.33,9.33-8.86,12.36c-3.59,2.39-8.16,3.86-13.68,3.86"/>
		<line class="st2" x1="144.05" y1="192.21" x2="138.06" y2="199.31"/>
		<path class="st1" d="M149.51,142.28c0.01,0.01,0.01,0.01,0.02,0.02c8.85,6.58,8.85,18.94,5.8,29.62"/>
		<path class="st1" d="M155.32,171.91c-3.08,7.49-6.62,12.78-15.17,14.98"/>
		<path class="st1" d="M147.74,141.31c1.04-2.58,0.99-6.49,0.18-6.99c-0.05-0.03-0.11-0.05-0.18-0.05"/>
		<path class="st1" d="M140.15,186.89c0,3.84-0.65,4.42-2.91,6.93c-0.05,0.06-0.1,0.11-0.15,0.17"/>
		<path class="st2" d="M179.49,211.07c1.61-7.1-3.22-10.05-6.45-11.61"/>
		<line class="st2" x1="179.49" y1="211.07" x2="178.84" y2="215.59"/>
		<path class="st2" d="M173.04,199.47c-5.58-2.9-11.45-7.26-15.31-11.12"/>
		<path class="st2" d="M208.01,288.92c-12.89-23.21-26.27-64.31-29.17-73.33"/>
		<path class="st2" d="M230.42,222.51c-4.03,33.2-15.31,51.42-22.41,66.41"/>
		<path class="st2" d="M235.41,210.27c-2.5,5.32-4.99,5.32-4.99,12.25"/>
		<line class="st2" x1="235.41" y1="210.27" x2="235.41" y2="202.21"/>
		<polyline class="st2" points="235.41,202.21 233.16,195.68 232.91,194.96 		"/>
		<path class="st1" d="M87.81,193.99c-18.25,11.28-16.96,20.47-20.34,31.59"/>
		<line class="st1" x1="67.47" y1="225.58" x2="61.18" y2="261.04"/>
		<line class="st1" x1="61.18" y1="261.04" x2="56.99" y2="288.92"/>
		<line class="st1" x1="98.74" y1="239.76" x2="95.99" y2="249.43"/>
		<path class="st1" d="M95.99,249.43c-1.93,5.81,0.61,8.86,1.37,8.86"/>
		<line class="st1" x1="117.27" y1="246.69" x2="112.28" y2="259.42"/>
		<path class="st1" d="M112.28,259.42c-0.78,1.86-2.6,3.71-5.81,3.71"/>
		<polyline class="st1" points="97.36,258.29 98.5,258.9 104.71,262.2 106.47,263.13 		"/>
		<path class="st2" d="M135.32,256.36c-1.29,17.25-6.94,23.04-6.94,32.56"/>
		<path class="st2" d="M141.93,219.94c0,20.13-3.31,30.3-6.61,36.43"/>
		<path class="st2" d="M141.93,219.94c-0.88-6.61-3.31-16.44-3.87-20.63"/>
		<path class="st1" d="M132.58,177.71c-6.77,0-7.58,5.95-8.54,11.9"/>
		<path class="st1" d="M138.06,199.31c-0.13-2.12-0.44-3.98-0.82-5.49c-0.38-1.5-0.83-2.65-1.28-3.38"/>
		<path class="st1" d="M135.96,190.44c-0.52-2.02-1.51-12.73-3.38-12.73"/>
		<path class="st1" d="M121.14,189.61c0-4-3.46-7.23-7.73-7.23"/>
		<path class="st1" d="M121.14,189.61c0,2.68-2.59,4.82-10.8,4.46c-0.71-0.04-1.46-0.09-2.26-0.16"/>
		<line class="st1" x1="113.41" y1="182.38" x2="95.29" y2="180.18"/>
		<path class="st1" d="M124.04,189.61c0,6.19,0.94,10.35,1.89,13.46"/>
		<line class="st1" x1="85" y1="187.49" x2="85.52" y2="190.44"/>
		<line class="st1" x1="85.52" y1="190.44" x2="87.81" y2="193.99"/>
		<line class="st2" x1="87.81" y1="193.99" x2="92.18" y2="201.24"/>
		<line class="st2" x1="92.18" y1="201.24" x2="92.4" y2="203.39"/>
		<line class="st2" x1="92.4" y1="203.39" x2="92.29" y2="207.58"/>
		<polyline class="st1" points="103.23,200.41 92.29,207.58 86.06,211.66 		"/>
		<path class="st2" d="M86.06,211.66c-3.9,3.76-0.36,9.02-0.8,9.02"/>
		<path class="st2" d="M80.9,230.04c0-5.17,0-7.42,4.36-9.35"/>
		<path class="st2" d="M80.9,230.04c-4.08,9.02,1.58,16.55,3.22,19.39"/>
		<path class="st2" d="M84.12,249.43c0.53,6.78,4.23,11.08,7.41,14.54c0.07,0.08,0.14,0.16,0.22,0.24"/>
		<path class="st1" d="M112.28,200.81c-0.76-0.63-2.49-1.55-4.53-1.68c-1.44-0.1-3.03,0.2-4.52,1.28"/>
		<line class="st1" x1="124.52" y1="211.66" x2="112.28" y2="200.81"/>
		<line class="st1" x1="112.28" y1="216.17" x2="120.33" y2="222.94"/>
		<path class="st1" d="M127.86,222.08c0-4.35-0.41-6.88-1.94-8.92c-0.39-0.52-0.85-1.02-1.4-1.5"/>
		<path class="st1" d="M124.98,231.86c0-0.93-0.08-1.75-0.23-2.5c-0.65-3.23-2.53-4.94-4.42-6.42"/>
		<path class="st1" d="M127.86,222.08c0,3.98-1.29,7.2-2.88,7.2"/>
		<path class="st1" d="M124.98,231.86c0,5.46,0,7.42-5.29,9.88"/>
		<line class="st1" x1="95.29" y1="215.53" x2="100.99" y2="213.49"/>
		<path class="st1" d="M112.28,216.17c-3.55-3.16-8.06-4.51-11.29-2.68"/>
		<line class="st1" x1="107.75" y1="227.89" x2="116.3" y2="233.26"/>
		<line class="st1" x1="119.69" y1="238.15" x2="119.69" y2="241.74"/>
		<line class="st1" x1="92.34" y1="227.99" x2="98.85" y2="226.38"/>
		<path class="st1" d="M119.69,238.15c0-2.7-1.29-3.28-3.38-4.89"/>
		<path class="st1" d="M107.75,227.89c-3.64-2.53-7.19-1.51-8.9-1.51"/>
		<path class="st1" d="M119.69,241.74c0,2.34-1.02,4.32-2.42,4.95c-0.31,0.13-0.63,0.21-0.97,0.21"/>
		<path class="st1" d="M109.8,244.6c1.83,2.31,4.4,2.95,6.5,2.31"/>
		<path class="st1" d="M109.8,244.6c-0.23-1.29-1.03-2.35-2.05-2.85"/>
		<line class="st1" x1="107.75" y1="241.74" x2="103.79" y2="239.06"/>
		<path class="st1" d="M96.91,241.21c0-0.56,0.69-1.07,1.83-1.46c1.25-0.43,3.05-0.7,5.05-0.7"/>
		<path class="st1" d="M125.92,203.07c0,4.75,0,6.55,0,8.59"/>
		<path class="st1" d="M107.75,199.11c-0.33-0.57-0.71-1.1-1.12-1.6c-0.98-1.2-2.18-2.24-3.4-3.41"/>
		<line class="st1" x1="125.92" y1="211.66" x2="125.92" y2="213.16"/>
		<line class="st1" x1="103.23" y1="194.11" x2="108.09" y2="193.91"/>
		<path class="st1" d="M94.65,192.21c2.15,0.78,6.15,1.78,8.59,1.89"/>
		<polyline class="st1" points="94.54,258.29 98.5,258.9 101.92,259.42 		"/>
		<path class="st1" d="M91.75,260.12c0-1-0.64-2.26,2.79-1.83"/>
		<path class="st1" d="M104.64,263.13c0-0.34,0.03-0.65,0.07-0.93c0.17-1.43,0.42-2.2-2.79-2.78"/>
		<path class="st1" d="M91.75,260.12c0,1.53-0.08,2.78-0.22,3.85c-0.51,4-1.72,5.49-1.72,9.81"/>
		<line class="st1" x1="89.81" y1="273.77" x2="88.86" y2="288.92"/>
		<line class="st1" x1="100.78" y1="288.92" x2="100.78" y2="280.22"/>
		<path class="st1" d="M104.64,263.13c0,9.44-3.43,10.1-3.86,17.09"/>
		<line class="st1" x1="88.86" y1="288.92" x2="100.78" y2="288.92"/>
		<line class="st1" x1="232.91" y1="194.96" x2="242.2" y2="203.66"/>
		<line class="st1" x1="242.2" y1="203.66" x2="255.07" y2="210.27"/>
		<line class="st1" x1="255.07" y1="210.27" x2="270.55" y2="214.3"/>
		<polyline class="st1" points="270.55,214.3 273.59,214.66 281.34,215.59 		"/>
		<path class="st1" d="M288.11,220.58c-2.74-1.46-3.38-3.48-6.77-5"/>
		<path class="st1" d="M232.91,195.76c-7-10.16-8.94-19.18-8.94-24.82"/>
		<line class="st1" x1="223.97" y1="170.94" x2="222.68" y2="151.6"/>
		<line class="st1" x1="228.44" y1="119.53" x2="223.97" y2="141.31"/>
		<line class="st1" x1="223.97" y1="141.31" x2="222.68" y2="151.6"/>
		<path class="st1" d="M226.86,116.46c0,1.11,0.68,2.11,1.75,2.79c0.91,0.58,2.1,0.93,3.41,0.93"/>
		<path class="st1" d="M245.73,111.95c-2.25,4.51-5.81,7.26-13.7,8.22"/>
		<path class="st1" d="M188.99,34.43c5.65,0,30.47,14.66,31.43,23.85"/>
		<path class="st1" d="M220.42,58.29c1.12,20.29,6.35,24.27,6.44,40.5c0.01,0.14,0.01,0.29,0.01,0.43"/>
		<path class="st1" d="M143.38,68.76c2.1-19.66,13.21-34.32,31.43-35.13"/>
		<path class="st1" d="M143.38,68.76c-0.58,2.53-1,4.63-1.3,6.49c-0.02,0.12-0.03,0.23-0.06,0.35c-0.08,0.52-0.15,1.03-0.21,1.52
			c-0.52,3.87-0.52,6.79-0.52,10.83"/>
		<path class="st1" d="M141.28,87.94c-3.22,14.5-1.3,21.28,1.09,26.82"/>
		<path class="st1" d="M154.03,144.77c-3.16-11.54-9.98-24.59-11.67-30.01"/>
		<polyline class="st1" points="166.86,168.04 167.46,168.1 179.81,169.26 		"/>
		<path class="st1" d="M199.79,161.22c-1.45,1.19-11.67,8.04-19.98,8.04"/>
		<path class="st1" d="M221.54,127.1c-0.81,12.31-11.92,25.89-21.76,34.12"/>
		<path class="st1" d="M110.34,194.11c0,1.89-3.23,0.77-3.71,3.41"/>
		<path class="st1" d="M149.51,37.49c-15.31,14.67-9.19,24.5-13.8,36.56"/>
		<path class="st1" d="M135.7,74.05c-7.47,19.53-12.15,19.05-8.92,34.84"/>
		<path class="st1" d="M126.78,108.89c1.53,5.87-1.04,8.81-4.89,10.23"/>
		<path class="st1" d="M183.35,20.57c-24.26-2.42-26.76,9.99-33.84,16.92"/>
		<path class="st1" d="M187.38,19.92c16.44-4.83,50.12,8.14,62.7,45.61"/>
		<line class="st1" x1="183.35" y1="20.57" x2="187.38" y2="19.92"/>
		<path class="st1" d="M179.79,26.37c-2.49,3.63-2.23,7.26-4.98,7.26"/>
		<path class="st1" d="M179.79,26.37c0,4.45,4.12,8.06,9.2,8.06"/>
		<path class="st1" d="M210.67,77.89c-5.97-4.6-7.17-5.91-16.03-5.91"/>
		<path class="st1" d="M194.64,71.98c-7.9,0.81-8.22,2.95-18.37,2.95"/>
		<path class="st1" d="M180.77,70.85c-3.53,1.12-5.97,1.48-4.51,4.08"/>
		<path class="st1" d="M207.53,73.46c-2.74-2.1-7.74-6.15-17.25-3.72"/>
		<line class="st1" x1="180.77" y1="70.85" x2="190.28" y2="69.74"/>
		<path class="st1" d="M210.67,77.89c0-2.45-0.8-2.95-3.14-4.43"/>
		<path class="st1" d="M161.05,74.05c0,0.9-0.88,1.62-1.96,1.62"/>
		<path class="st1" d="M159.09,75.67c-2.55,1.43-11.03-2.78-17.29,1.43"/>
		<path class="st1" d="M161.05,74.05c0-1.77-4.74-2.07-10.61-2.07"/>
		<path class="st1" d="M142.01,75.67c0-0.03,0-0.06,0-0.08c0.01-0.12,0.03-0.23,0.06-0.35c0.48-1.83,4.04-3.27,8.37-3.27"/>
		<line class="st1" x1="141.8" y1="77.11" x2="142.01" y2="75.67"/>
		<path class="st1" d="M264.64,127.96c0.11-0.16,0.22-0.31,0.31-0.47c10.39-15.34,2.59-19.56-0.31-24.45"/>
		<path class="st1" d="M264.64,103.04c-6.45-11.56-10.75-28.99-14.56-37.5"/>
		<path class="st1" d="M274.97,176.9c0.86-3.27-0.53-7.75-1.85-8.86"/>
		<path class="st1" d="M275.04,176.94c-0.76,1.31-0.71,2.95-0.42,4.43c0.29,1.49,0.79,2.94,0.89,4.45c0.08,1.33-0.15,2.68,0.05,4
			c0.4,2.59,2.4,4.7,2.85,7.28c0.29,1.66-0.1,3.38-0.84,4.89c-0.75,1.51-1.84,2.82-3,4.03c-0.33,0.35-0.66,0.68-0.88,1.09
			c-0.2,0.39-0.29,0.82-0.36,1.25c-0.31,1.99-0.21,4.05,0.29,5.99"/>
		<path class="st1" d="M264.96,127.44c0,0.02,0,0.03-0.01,0.05c-0.25,2.42,0.24,4.93,1.39,7.09c0.64,1.2,1.46,2.28,2.07,3.49
			c0.77,1.57,1.14,3.29,1.41,5.01c0.17,1.04,0.31,2.09,0.27,3.14c-0.04,0.99-0.24,2.02,0.09,2.96c0.4,1.11,1.45,1.86,2.02,2.89
			c0.23,0.41,0.38,0.86,0.51,1.3c0.53,1.99,0.54,4.13,0.01,6.13c-0.19,0.72-0.48,1.41-0.61,2.15c-0.4,2.32-0.12,4.97,1.01,6.39"/>
		<path class="st1" d="M226.88,98.79c1.36-0.24,2.7-0.56,4.01-0.98c1.66-0.53,3.28-1.21,4.76-2.12c3.08-1.89,5.62-4.97,6.04-8.55"/>
		<path class="st1" d="M241.75,86.9c0.01,0.07,0.03,0.14,0.03,0.21c0.39,2.37,0.77,4.74,1.17,7.1c0.11,0.71,0.23,1.41,0.42,2.1
			c0.36,1.24,0.97,2.39,1.58,3.53c0.55,1.04,1.2,2.16,2.31,2.56"/>
		<path class="st1" d="M247.27,102.41c0,5.28-0.55,7.27-1.54,9.54"/>
		<path class="st1" d="M183.3,84.28c1.22-1.12,3.23-2.51,5.61-3.38c4.13-1.55,9.34-1.57,13.31,3.97"/>
		<path class="st1" d="M189.5,84.91c-0.58-0.65-0.94-1.51-0.94-2.45c0-0.56,0.13-1.08,0.35-1.55"/>
		<path class="st1" d="M195.1,80.16c0.51,0.63,0.81,1.43,0.81,2.3c0,0.96-0.37,1.83-0.98,2.49"/>
		<line class="st1" x1="188.9" y1="80.91" x2="195.1" y2="80.16"/>
		<line class="st1" x1="189.5" y1="84.91" x2="194.93" y2="84.95"/>
		<path class="st1" d="M147.29,81.68c0.13-0.09,0.28-0.19,0.43-0.26c1.15-0.63,2.7-0.87,4.65-0.51c2.34,0.43,5.24,1.72,8.69,4.22"/>
		<path class="st1" d="M145.39,86.9c-0.35-2.13,0.3-4.11,1.9-5.22"/>
		<path class="st1" d="M148.3,85.85c-0.83-0.57-1.38-1.54-1.38-2.63c0-0.52,0.13-1.02,0.35-1.46"/>
		<path class="st1" d="M152.37,80.92c0.6,0.58,0.97,1.4,0.97,2.3c0,0.83-0.31,1.59-0.83,2.15"/>
		<path class="st1" d="M147.27,81.76c0-0.03,0.01-0.05,0.03-0.08v-0.01c0.06-0.09,0.2-0.19,0.43-0.26c0.8-0.29,2.58-0.5,4.65-0.5"/>
		<path class="st1" d="M152.5,85.37c0,0.02-0.01,0.03-0.03,0.05c-0.2,0.24-1.91,0.42-4.01,0.43c-0.05,0-0.11,0-0.16,0"/>
		<path class="st1" d="M145.3,83.81c3.23-7.42,10.45-5.92,16.94-1.25"/>
		<path class="st1" d="M162.24,82.56c-3.15-5.45-17.62-7.63-16.94,1.25"/>
		<path class="st1" d="M182.33,81.76c5.84-3.11,14.4-6.89,21.38,1.66"/>
		<path class="st1" d="M182.33,81.76c3.11-4.65,16.12-8.74,21.38,1.66"/>
		<path class="st1" d="M173.81,109.6c-0.57,0.06-1.15,0.11-1.72,0.24c-0.75,0.17-1.46,0.47-2.18,0.77c-0.47,0.2-0.95,0.4-1.32,0.76
			c-0.37,0.35-0.62,0.88-0.5,1.37c2.26-0.06,4.49-0.55,6.57-1.43c0.57-0.24,2.27-0.72,1.78-1.51
			C176.05,109.14,174.37,109.55,173.81,109.6z"/>
		<path class="st1" d="M190.81,130.42c-1.31-3.52-11.01-13.95-23.95-9.44"/>
		<path class="st1" d="M166.86,120.98c-12.25-2.66-13.53,4.01-6.78,11.39"/>
		<path class="st1" d="M170.08,151.64c-9.57-0.46-12.36-13.04-10.01-19.27"/>
		<path class="st1" d="M190.81,130.42c0,1.07-0.08,2.13-0.23,3.16c-1.49,10.23-10.1,18.06-20.5,18.06"/>
		<line class="st1" x1="163.73" y1="140.26" x2="163.84" y2="140.17"/>
		<path class="st1" d="M172.31,134.27c-4.85,0.8-5.87,3.52-6.63,7.04"/>
		<path class="st1" d="M188.99,135.07c-4.22,0.89-8.53-2.7-10.85,3.53"/>
		<path class="st1" d="M178.14,138.6c0-2.39-2.61-4.33-5.83-4.33"/>
		<path class="st1" d="M161.44,129.77c2.63,0.94,12.62,2.6,26.59-0.62"/>
		<path class="st1" d="M188.99,135.07c0.39-0.5,0.59-1.05,0.66-1.61c0.29-2.1-1.2-4.32-1.62-4.32"/>
		<path class="st1" d="M161.44,129.77c0,0.84,0.03,1.67,0.09,2.47c0.29,3.51,1.14,6.42,2.31,7.94c0.56,0.73,1.18,1.14,1.83,1.14"/>
		<path class="st1" d="M188.99,135.07c-3.77,7.03-18.17,14.08-25.26,5.19c-0.18-0.22-0.35-0.45-0.52-0.7"/>
		<path class="st1" d="M169.33,124.28c-7.06-0.22-7.89,0.46-9.78,1.77"/>
		<path class="st1" d="M188.03,129.15c-1.73-2.05-8.37-4.86-18.7-4.86"/>
		<path class="st1" d="M159.55,126.05c0,2.05,0.85,3.72,1.89,3.72"/>
		<path class="st3" d="M145.39,86.9c0-0.4,1.14-0.76,3.07-1.05c1.1-0.17,2.46-0.32,4.01-0.43c2.46-0.19,5.4-0.29,8.58-0.29"/>
		<path class="st3" d="M183.3,84.28c1.49,0.24,3.65,0.48,6.2,0.64c3.7,0.24,8.22,0.31,12.71-0.05"/>
	</g>
</g>
<path class="st3" d="M181.16,83.81c0,0.33,13.47,1.81,24.05,0.9"/>
<path class="st3" d="M144.72,87.13c1.51-1.11,9.13-2.25,20.41-2.25"/>
<path class="st3" d="M149.22,86.98c-0.21,0.41-0.22,0.95,0.09,1.29c0.19,0.2,0.46,0.31,0.73,0.38c1.02,0.29,6.75-0.25,4.86-2.46
	C153.94,85.08,149.85,85.79,149.22,86.98z"/>
<path class="st4" d="M165.38,213.33c7.01,33.81,21.35,64.47,28.04,74.78"/>
<path class="st4" d="M165.38,213.33c-1.69-6.37-12.05-8.06-23.57-18.45"/>
<path class="st4" d="M238.87,222.09c-1.32,36.12-8.66,52.89-17.33,66.83"/>
<path class="st4" d="M242.2,203.66c1.27,8.62,0,13.81-3.32,18.43"/>
<line class="st2" x1="86.06" y1="211.66" x2="92.34" y2="206.24"/>
<circle class="st5" cx="192.83" cy="82.16" r="0.83"/>
<circle class="st6" cx="150.75" cy="83" r="0.87"/>
</svg>
