<?xml version="1.0" encoding="utf-8"?>
<!-- Generator: Adobe Illustrator 24.1.2, SVG Export Plug-In . SVG Version: 6.00 Build 0)  -->
<svg version="1.1" id="Layer_1" xmlns="http://www.w3.org/2000/svg" xmlns:xlink="http://www.w3.org/1999/xlink" x="0px" y="0px"
	 viewBox="0 0 288 288" style="enable-background:new 0 0 288 288;" xml:space="preserve">
<style type="text/css">
	.st0{fill:#F6EDD5;}
	.st1{fill:#F4ECD6;stroke:#000000;stroke-width:3;stroke-miterlimit:10;}
	.st2{fill:none;stroke:#000000;stroke-width:2;stroke-miterlimit:10;}
	.st3{fill:none;stroke:#000000;stroke-miterlimit:10;}
	.st4{fill:none;stroke:#000000;stroke-linecap:round;stroke-linejoin:round;}
	.st5{fill:none;stroke:#000000;stroke-width:0.5;stroke-linecap:round;stroke-linejoin:round;}
	.st6{fill:#F4ECD6;stroke:#000000;stroke-miterlimit:10;}
	.st7{display:none;fill:#FFFFFF;}
	.st8{stroke:#F4ECD6;stroke-width:6;stroke-miterlimit:10;}
	.st9{fill:#FF4000;}
	.st10{fill:none;stroke:#F4ECD6;stroke-width:6;stroke-linecap:round;stroke-linejoin:round;}
	.st11{fill:none;stroke:#F4ECD6;stroke-width:6;stroke-miterlimit:10;}
	.st12{fill:#EDC330;}
	.st13{fill:none;stroke:#E8A425;stroke-width:5;stroke-miterlimit:10;}
	.st14{fill:#E8A425;}
	.st15{fill:none;stroke:#E8A425;stroke-miterlimit:10;}
	.st16{fill:none;stroke:#000000;stroke-width:0.5;stroke-miterlimit:10;}
	.st17{fill:#F4ECD6;}
	.st18{stroke:#000000;stroke-width:0.5;stroke-miterlimit:10;}
	.st19{fill:none;}
</style>
<path id="_x32_." class="st0" d="M277.53,289.53H10.08C4.54,289.53,0,284.99,0,279.44V11.99C0,6.45,4.54,1.91,10.08,1.91h267.45
	c5.55,0,10.08,4.54,10.08,10.08v267.45C287.62,284.99,283.08,289.53,277.53,289.53z"/>
<polygon class="st1" points="87.63,166.43 247.88,105.61 216.02,18.09 55.77,76.97 "/>
<path class="st2" d="M278.14,211.07c3.05,9.31-3.7,18.66-11.25,20.62"/>
<line class="st2" x1="80.25" y1="239.48" x2="125.92" y2="271.98"/>
<line class="st2" x1="125.92" y1="271.98" x2="144.9" y2="284.53"/>
<line class="st2" x1="144.9" y1="284.53" x2="153.27" y2="289.53"/>
<line class="st3" x1="153.27" y1="289.53" x2="190.38" y2="289.53"/>
<line class="st3" x1="80.25" y1="239.48" x2="79.69" y2="232.61"/>
<line class="st2" x1="79.69" y1="232.61" x2="94.66" y2="219.53"/>
<line class="st2" x1="94.66" y1="219.53" x2="103.08" y2="213.29"/>
<line class="st2" x1="103.08" y1="213.29" x2="112.08" y2="203.12"/>
<path class="st2" d="M113.26,205.9c-2.79,3.65-5.04,7.38-7.4,11.05"/>
<path class="st2" d="M105.86,216.95c-5.26,5.04-8.37,9.12-9.22,16.3"/>
<path class="st2" d="M96.64,233.26c0,2.37,1.07,3.29,3,4.29"/>
<line class="st2" x1="99.64" y1="237.55" x2="132.35" y2="254.28"/>
<line class="st2" x1="132.35" y1="254.28" x2="169.36" y2="271.98"/>
<line class="st2" x1="169.36" y1="271.98" x2="186.31" y2="280.02"/>
<line class="st2" x1="186.31" y1="280.02" x2="199.39" y2="285.81"/>
<line class="st2" x1="195.31" y1="284.01" x2="190.38" y2="289.53"/>
<line class="st2" x1="199.39" y1="285.81" x2="207.55" y2="289.53"/>
<line class="st2" x1="222.56" y1="290" x2="232.64" y2="276.48"/>
<line class="st3" x1="207.55" y1="289.53" x2="222.56" y2="290"/>
<line class="st2" x1="119.05" y1="238.73" x2="125.38" y2="245.91"/>
<line class="st2" x1="119.05" y1="238.73" x2="124.52" y2="232.18"/>
<line class="st2" x1="124.52" y1="232.18" x2="129.99" y2="222.64"/>
<line class="st2" x1="125.38" y1="245.91" x2="137.18" y2="249.56"/>
<line class="st2" x1="137.18" y1="249.56" x2="162.28" y2="256.75"/>
<line class="st2" x1="162.28" y1="256.75" x2="172.9" y2="259.86"/>
<line class="st2" x1="172.9" y1="259.86" x2="206.04" y2="268.22"/>
<line class="st2" x1="206.04" y1="268.22" x2="234.15" y2="276.8"/>
<line class="st2" x1="234.15" y1="276.8" x2="241.65" y2="279.7"/>
<line class="st2" x1="241.65" y1="279.7" x2="247.98" y2="282.49"/>
<line class="st2" x1="247.98" y1="282.49" x2="253.13" y2="281.74"/>
<line class="st2" x1="253.13" y1="281.74" x2="256.35" y2="271.87"/>
<line class="st2" x1="256.35" y1="271.87" x2="267.73" y2="230.03"/>
<line class="st2" x1="195.64" y1="248.49" x2="205.83" y2="242.91"/>
<line class="st2" x1="205.83" y1="242.91" x2="220.09" y2="236.69"/>
<line class="st2" x1="220.09" y1="236.69" x2="234.47" y2="231.22"/>
<line class="st2" x1="234.47" y1="231.22" x2="243.91" y2="227.36"/>
<line class="st2" x1="193.71" y1="248.81" x2="189.47" y2="246.77"/>
<line class="st2" x1="189.47" y1="246.77" x2="183.3" y2="243.02"/>
<line class="st2" x1="183.3" y1="243.02" x2="177.83" y2="237.33"/>
<path class="st2" d="M177.83,237.33c-1.82-1.72-10.22-2.68-22.85-2.68"/>
<line class="st2" x1="152.2" y1="233.26" x2="128.39" y2="221.99"/>
<path class="st2" d="M128.39,221.99c-4.29-2.15-7.29-5.59-9.55-8.71"/>
<line class="st2" x1="118.84" y1="213.29" x2="109.56" y2="200.43"/>
<line class="st2" x1="152.2" y1="233.26" x2="154.99" y2="234.65"/>
<line class="st2" x1="127.31" y1="171.06" x2="154.25" y2="162.46"/>
<line class="st2" x1="154.25" y1="162.46" x2="176.87" y2="153.94"/>
<line class="st2" x1="176.87" y1="153.94" x2="190.06" y2="148.2"/>
<line class="st2" x1="190.06" y1="148.2" x2="200.36" y2="146.64"/>
<line class="st3" x1="168.48" y1="157.1" x2="173.33" y2="147.57"/>
<line class="st3" x1="173.33" y1="147.57" x2="179.44" y2="137.79"/>
<line class="st3" x1="179.44" y1="137.79" x2="183.46" y2="130.06"/>
<line class="st2" x1="277.23" y1="211.42" x2="288" y2="203.87"/>
<line class="st2" x1="200.36" y1="146.64" x2="253.02" y2="118.7"/>
<line class="st2" x1="253.02" y1="118.7" x2="288" y2="97.25"/>
<line class="st2" x1="173.28" y1="133.93" x2="168.29" y2="142.68"/>
<line class="st2" x1="168.29" y1="142.68" x2="162.28" y2="151.07"/>
<line class="st2" x1="162.28" y1="151.07" x2="154.25" y2="162.46"/>
<line class="st3" x1="137" y1="226.07" x2="132.84" y2="234.65"/>
<line class="st3" x1="132.84" y1="234.65" x2="128.39" y2="240.17"/>
<line class="st3" x1="128.39" y1="240.17" x2="154.99" y2="247.79"/>
<line class="st3" x1="154.99" y1="247.79" x2="208.19" y2="262.22"/>
<line class="st3" x1="208.19" y1="262.22" x2="249.38" y2="273.59"/>
<line class="st3" x1="249.38" y1="273.59" x2="262.22" y2="231.42"/>
<line class="st3" x1="250.56" y1="230.36" x2="244.82" y2="248.7"/>
<line class="st3" x1="143.81" y1="241.19" x2="195.21" y2="255"/>
<line class="st3" x1="195.21" y1="255" x2="239.19" y2="267.3"/>
<line class="st3" x1="143.81" y1="241.19" x2="149.09" y2="231.78"/>
<line class="st3" x1="97.14" y1="230.36" x2="91.33" y2="235.4"/>
<line class="st3" x1="91.33" y1="235.4" x2="110.15" y2="247.79"/>
<line class="st3" x1="110.15" y1="247.79" x2="140.29" y2="266.94"/>
<line class="st3" x1="140.29" y1="266.94" x2="170.9" y2="286.77"/>
<line class="st3" x1="170.9" y1="286.77" x2="174.72" y2="289.53"/>
<line class="st3" x1="174.72" y1="289.53" x2="184.23" y2="279.04"/>
<path class="st3" d="M223.96,273.7c-3.17,4.56-6.35,11.9-6.35,16.15"/>
<path class="st3" d="M211.17,269.79c-3.33,6.21-5.56,12.32-6.66,18.36"/>
<path class="st3" d="M119.53,214.21c-6.27,11.86-11.94,11.86-11.94,27.39"/>
<line class="st3" x1="116" y1="196.02" x2="125.92" y2="214.21"/>
<line class="st3" x1="125.92" y1="214.21" x2="133.24" y2="224.29"/>
<line class="st3" x1="143.81" y1="168.84" x2="162.28" y2="163.11"/>
<line class="st3" x1="162.28" y1="163.11" x2="181.45" y2="155.59"/>
<line class="st3" x1="181.45" y1="155.59" x2="193.17" y2="151.07"/>
<line class="st3" x1="193.17" y1="151.07" x2="197.89" y2="149.81"/>
<line class="st3" x1="197.89" y1="149.81" x2="204.51" y2="147.45"/>
<line class="st3" x1="257.53" y1="200" x2="287.62" y2="183.7"/>
<line class="st3" x1="287.62" y1="103.04" x2="272.57" y2="112.48"/>
<line class="st3" x1="272.57" y1="112.48" x2="263.11" y2="117.84"/>
<line class="st3" x1="263.11" y1="117.84" x2="227.28" y2="136.29"/>
<line class="st3" x1="227.28" y1="136.29" x2="204.51" y2="147.45"/>
<line class="st3" x1="272.57" y1="205.12" x2="288" y2="197.16"/>
<path class="st3" d="M179.48,236.04c-5.83-3.16-11.89-10.94-35.67-6.76"/>
<path class="st3" d="M239.19,221.99c-9.33,4.08-34.67,12.66-51.87,21.99"/>
<line class="st3" x1="187.31" y1="243.98" x2="179.48" y2="236.04"/>
<path class="st3" d="M177.83,233.95c6.54-3.59,13.76-7.88,23.37-10.57"/>
<path class="st3" d="M177.83,233.95c-6.93-4.67-12.57-7.88-28.1-7.88"/>
<line class="st3" x1="118.84" y1="195.09" x2="136.59" y2="223.39"/>
<line class="st3" x1="141.69" y1="178.6" x2="154.99" y2="172.61"/>
<line class="st3" x1="154.99" y1="172.61" x2="163.78" y2="169.17"/>
<line class="st3" x1="191.28" y1="127.09" x2="183.46" y2="141.87"/>
<line class="st3" x1="183.46" y1="141.87" x2="179.48" y2="150.44"/>
<line class="st3" x1="179.48" y1="150.44" x2="178.3" y2="153.32"/>
<line class="st3" x1="267.86" y1="122.38" x2="280.09" y2="116.55"/>
<ellipse class="st3" cx="211.71" cy="203.53" rx="17.9" ry="11.68"/>
<path class="st3" d="M230.36,205.57c0,6.45-8.16,11.68-18.22,11.68s-18.22-5.91-18.22-12.36"/>
<path class="st3" d="M258.25,202.82"/>
<ellipse class="st4" cx="257.78" cy="214.74" rx="19.99" ry="14.44"/>
<path class="st4" d="M278.61,217.26c0,7.97-9.11,14.44-20.35,14.44c-11.24,0-20.35-7.3-20.35-15.28"/>
<path class="st5" d="M278.61,217.26c0-9.54-9.43-17.25-21.08-17.25"/>
<path class="st3" d="M230.36,205.57c0-7.58-8.34-13.72-18.65-13.72"/>
<ellipse class="st3" cx="218.01" cy="177.79" rx="17.53" ry="11.15"/>
<path class="st3" d="M236.28,179.74c0,6.16-7.99,11.15-17.85,11.15c-9.86,0-17.85-5.64-17.85-11.8"/>
<path class="st3" d="M236.28,179.74c0-7.24-8.17-13.09-18.26-13.09"/>
<path class="st3" d="M235.24,175.19c1.39-0.28,2.85-0.43,4.36-0.43c8.91,0,16.13,5.17,16.13,11.55c0,6.38-7.22,11.55-16.13,11.55
	c-7.07,0-13.07-3.25-15.25-7.78"/>
<path class="st3" d="M255.73,186.86c0,6.51-6.96,12.31-16.27,12.31c-7.39,0-13.47-4.16-15.75-8.78"/>
<path class="st3" d="M239.46,175.6"/>
<path class="st3" d="M234.9,176.04"/>
<line class="st2" x1="275.84" y1="104.71" x2="242.16" y2="89.91"/>
<line class="st3" x1="243.02" y1="92.26" x2="272.57" y2="106.71"/>
<line class="st3" x1="244.36" y1="95.96" x2="270.51" y2="107.78"/>
<path class="st3" d="M181.45,155.59c-31.72,14.3-19.81,37.43-13.86,46.56"/>
<path class="st3" d="M227.15,226.77c-23.68,1.31-45.69-9.13-59.56-24.62"/>
<path class="st3" d="M253.53,193.02c0,4.29-0.38,7.76-0.84,7.76"/>
<path class="st3" d="M247.69,176.57c-9.79-11.75-26.65-29.69-54.52-25.5"/>
<path class="st3" d="M171.87,202.15c-6.31-10.3-19.42-32.26,11.6-43.95"/>
<path class="st3" d="M230.36,221.99c-29.16,5.42-46.96-9.92-58.49-19.84"/>
<path class="st3" d="M243.31,175c-5.16-7.62-29.92-32.32-59.84-16.8"/>
<path class="st3" d="M250.56,195.85c0,1.7-0.13,4.15-0.37,5.66"/>
<path class="st3" d="M238.61,217.86c-2.52,1.64-5.31,2.99-8.25,4.14"/>
<line class="st3" x1="136.59" y1="223.39" x2="141.69" y2="226.88"/>
<line class="st3" x1="141.69" y1="226.88" x2="149.73" y2="226.07"/>
<line class="st2" x1="193.71" y1="248.81" x2="195.64" y2="248.49"/>
<line class="st3" x1="209.14" y1="151.07" x2="232.81" y2="139.92"/>
<line class="st3" x1="232.81" y1="139.92" x2="267.86" y2="122.38"/>
<g>
	<path class="st6" d="M239.66,254.65c1.42-5.14,3.58-6.56,5.11-6.14c0.62,0.17,1.71,1.22,1.04,3.64c-0.71,2.59-2.53,2.59-2.9,2.98
		c-0.35,0.39-0.67,1-0.93,1.94c-0.26,0.94-0.61,3.26,0.54,3.58c1.93,0.53,3.27-3.95,3.4-4.43l0.3-1.07c0.22-0.82,0.5-4.14,0.34-5.78
		c-0.02-0.17,0.1-0.28,0.32-0.16c0.22,0.13,5.9,3.04,6.09,3.14c0.12,0.05,0.13,0.26,0.07,0.49l-4.57,16.6
		c-0.07,0.26-0.2,0.3-0.36,0.26l-2.16-0.71c-0.19-0.05-0.23-0.23-0.19-0.38l3.75-13.62l-1.92-0.89c0.28,1.72-0.48,6.03-0.58,6.41
		c-0.08,0.3-0.26,0.99-0.33,1.24c-0.07,0.26-0.31,1.05-0.38,1.31c-1.12,4.07-3.69,6.34-5.86,5.74c-2.14-0.59-3.55-4.15-2.13-9.29
		L239.66,254.65z"/>
</g>
<g>
	<path class="st6" d="M278.96,108.11c0.09-0.05,0.16-0.02,0.19,0.03l2.83,5.43l2.14-1.12c0.07-0.04,0.15,0,0.17,0.05l0.8,1.53
		c0.04,0.08,0,0.12-0.07,0.16l-9.28,4.84c-0.06,0.03-0.14-0.04-0.17-0.08l-0.78-1.5c-0.03-0.06,0.03-0.14,0.08-0.16l2.2-1.15
		l-1.57-3.01l-2.15,1.12c-0.11,0.06-0.21,0.06-0.23,0l-0.72-1.39c-0.03-0.06-0.06-0.21,0-0.24l3.26-1.7
		c0.47-0.25,0.51-0.86,0.56-1.26c0.01-0.05,0.05-0.14,0.1-0.16L278.96,108.11z"/>
	<path class="st6" d="M287.62,111.84c-1.23,0.39-2.61,0.5-3.72-1.63c-0.85-1.63-1-4.09,3.52-6.45"/>
</g>
<rect x="76.8" y="43.08" transform="matrix(0.9348 -0.3553 0.3553 0.9348 -21.0158 60.6453)" class="st7" width="155.62" height="88.93"/>
<g>
	<path class="st8" d="M179.54,107.82l-18.46,7.02l-4.06-10.69l7.76-35.16l8.83-3.36l10.93,28.75l4.58-1.74l3.83,10.08l-4.58,1.74
		l3.32,8.74l-8.83,3.36L179.54,107.82z M175.71,97.73l-5.6-14.72l-4.16,18.43L175.71,97.73z"/>
</g>
<g id="Cheeto_Prime_3_">
	<g>
		<path class="st9" d="M221.64,74.29c1.4,1.59,0.18,2.96-0.84,3.35l-2.38,1.29c2.84,1.94,5.15,3.03,2.93,7.72
			c-0.2,0.35,0.11,0.41,0.36,0.5c3.18,1.24,1.67,2.83,0.26,3.36c0.33,0.88,0.34,1.63,0.21,2c1.82,1.1,2.72,3.02,2.45,4.22
			c-0.24,1.89-5.43,5.33-9.21,7.43l-0.09,0.03c-4.99-16-4.06-33.19-2.29-37.39c0.3,0.63,0.67,0.56,1.15,1.01l2.22,1.61L221.64,74.29
			z"/>
	</g>
	<g>
		<line class="st10" x1="221.64" y1="74.29" x2="216.41" y2="69.42"/>
		<line class="st10" x1="216.41" y1="69.42" x2="214.19" y2="67.81"/>
		<path class="st10" d="M221.64,74.29c1.4,1.59,0.18,2.96-0.84,3.35"/>
		<path class="st10" d="M221.35,86.65c2.21-4.69-0.1-5.78-2.93-7.72"/>
		<line class="st10" x1="220.8" y1="77.64" x2="218.42" y2="78.93"/>
		<path class="st10" d="M221.71,87.15c3.18,1.24,1.67,2.83,0.26,3.36"/>
		<path class="st10" d="M221.98,90.51c0.33,0.88,0.34,1.63,0.21,2"/>
		<path class="st10" d="M221.35,86.65c-0.2,0.35,0.11,0.41,0.36,0.5"/>
		<path class="st10" d="M222.18,92.51c1.82,1.1,2.72,3.02,2.45,4.22"/>
		<path class="st10" d="M224.63,96.73c-0.24,1.89-5.43,5.33-9.21,7.43"/>
		<path class="st10" d="M213.04,66.8c0.3,0.63,0.67,0.56,1.15,1.01"/>
		<path class="st11" d="M215.34,104.21c0-0.01,0-0.01,0-0.01c-4.99-16-4.06-33.19-2.29-37.39"/>
	</g>
</g>
<g>
	<path class="st8" d="M180.47,63.93l29.58-11.25l3.34,8.78c-1.44,3.96-2.36,8-2.77,12.12c-0.49,5.01-0.36,10.32,0.4,15.95
		c0.57,4.39,1.73,9.39,3.48,15l-10.1,3.84c-2.11-7.94-3.29-14.82-3.54-20.64c-0.26-5.82,0.35-12.38,1.8-19.68l-18.01,6.85
		L180.47,63.93z"/>
</g>
<g id="XMLID_15_">
	<g>
		<path class="st12" d="M209.11,39.92c7.56,9.97-1.31,23.25-20.35,26.8c-9.83,1.62-14-0.57-24.39,0.83
			c-4.25,0.7-6.11,3.39-6.86,6.25c2.45-2.96,4.13-4.26,5.45-4.48c2.67,8.91-1.26,15.54-5.22,17.71c1.44-3.99-3.69-12.98-4.11-17.38
			c-1.09-17.53,16.04-24.63,28.79-22.46C197.45,50.1,207.89,48.46,209.11,39.92z"/>
		<path d="M207.58,36.66c12.95,10.43,1.69,26.03-12.91,29.98c-13.06,4.43-21.45,0.8-30.07,2.3c2.14,9.36-0.16,17.06-8.59,20.07
			c2.91-7.79-3.44-10.85-3.89-21.56c0.58-9.57,7.21-19.32,19.33-21.32c14.88-2.83,17.5,2.9,29.43,0.35
			C206.52,44.53,208.33,41.18,207.58,36.66z M188.76,66.72c19.04-3.55,27.91-16.84,20.35-26.8c-1.22,8.54-11.66,10.18-26.69,7.26
			c-12.75-2.17-29.88,4.93-28.79,22.46c0.42,4.41,5.55,13.39,4.11,17.38c3.96-2.17,7.9-8.8,5.22-17.71c-1.32,0.22-3,1.52-5.45,4.48
			c0.75-2.86,2.61-5.54,6.86-6.25C174.76,66.15,178.93,68.34,188.76,66.72z"/>
	</g>
	<g>
		<path class="st13" d="M152.12,67.45c0.58-9.57,7.21-19.32,19.33-21.32"/>
		<path class="st13" d="M200.88,46.48c-11.93,2.55-14.55-3.17-29.43-0.35"/>
		<path class="st13" d="M207.58,36.66c0.75,4.52-1.06,7.87-6.7,9.81"/>
		<path class="st13" d="M207.58,36.66c12.95,10.43,1.69,26.03-12.91,29.98"/>
		<path class="st13" d="M194.67,66.64c-13.06,4.43-21.45,0.8-30.07,2.3"/>
		<path class="st13" d="M164.6,68.94c2.14,9.36-0.16,17.06-8.59,20.07"/>
		<path class="st13" d="M152.12,67.45c0.45,10.71,6.8,13.77,3.89,21.56"/>
		<path class="st13" d="M157.51,73.79c0.75-2.86,2.61-5.54,6.86-6.25"/>
		<path class="st13" d="M188.76,66.72c-9.83,1.62-14-0.57-24.39,0.83"/>
		<path class="st13" d="M209.11,39.92c7.56,9.97-1.31,23.25-20.35,26.8"/>
		<path class="st13" d="M209.11,39.92c-1.22,8.54-11.66,10.18-26.69,7.26"/>
		<path class="st13" d="M153.63,69.64c-1.09-17.53,16.04-24.63,28.79-22.46"/>
		<path class="st13" d="M162.96,69.31c2.67,8.91-1.26,15.54-5.22,17.71"/>
		<path class="st13" d="M162.96,69.31c-1.32,0.22-3,1.52-5.45,4.48"/>
		<path class="st13" d="M157.74,87.03c1.44-3.99-3.69-12.98-4.11-17.38"/>
	</g>
</g>
<g id="XMLID_14_">
	<g>
		<path class="st14" d="M156.33,62c1.88-4.34,5.3-7.99,13.25-9.3c7.99-1.43,13.36,2.48,26.09,1.16c7.46-1.23,11.9-4.91,13.88-9.29
			l0.79,0.35c-1.95,4.18-6.01,8.85-15,10.33c-11.34,1.55-16.71-2.92-25.97-1.39C165.71,54.46,160.83,55.26,156.33,62z"/>
		<path class="st14" d="M155.29,68.17c1.38-4.14,4.67-7.64,11.8-8.82c10.35-1.71,12.91,0.27,22.32,0.15
			c13.13-0.37,20.63-8.02,20.93-14.59l-0.79-0.35c0.42-0.94,0.73-1.9,0.93-2.89c4.78,9.72-0.57,20.43-21.71,25.04
			c-17.42,2.88-27.69-3.66-31.18,7.32c-0.11-13.88,21.87-7.29,32.92-9.84c11.63-1.92,17.69-8.66,19.32-13.97
			c-2,4.32-6.96,8.86-17.09,10.53c-5.81,1.1-13.98-1.41-21.92-0.58C163.91,60.44,157.6,62.35,155.29,68.17z"/>
		<path class="st14" d="M161.19,72.17c1.22-0.97,1.43-1.27,1.78-2.86c2.43,9.34-0.57,15.32-5.22,17.71c1.1-1.25,1.6-2.12,1.23-4.36
			C161.05,80,162.09,77.62,161.19,72.17z"/>
	</g>
	<g>
		<path class="st15" d="M156.33,62c1.88-4.34,5.3-7.99,13.25-9.3"/>
		<path class="st15" d="M169.58,52.7c7.99-1.43,13.36,2.48,26.09,1.16"/>
		<path class="st15" d="M210.47,41.68c-0.2,0.98-0.51,1.95-0.93,2.89c-1.97,4.38-6.42,8.06-13.88,9.29"/>
		<path class="st15" d="M169.37,53.85c-3.66,0.6-8.55,1.41-13.04,8.15"/>
		<path class="st15" d="M195.34,55.25c-11.34,1.55-16.71-2.92-25.97-1.39"/>
		<path class="st15" d="M210.34,44.91c-1.95,4.18-6.01,8.85-15,10.33"/>
		<path class="st15" d="M210.34,44.91c-0.31,6.57-7.81,14.22-20.93,14.59"/>
		<path class="st15" d="M189.41,59.5c-9.41,0.11-11.97-1.86-22.32-0.15"/>
		<path class="st15" d="M155.29,68.17c1.38-4.14,4.67-7.64,11.8-8.82"/>
		<path class="st15" d="M155.29,68.17c2.31-5.81,8.62-7.73,15.53-8"/>
		<path class="st15" d="M192.73,60.75c-5.81,1.1-13.98-1.41-21.92-0.58"/>
		<path class="st15" d="M209.82,50.22c-2,4.32-6.96,8.86-17.09,10.53"/>
		<path class="st15" d="M190.5,64.19c-11.05,2.55-33.03-4.03-32.92,9.84"/>
		<path class="st15" d="M209.82,50.22c-1.63,5.32-7.68,12.05-19.32,13.97"/>
		<path class="st15" d="M161.19,72.17c0.9,5.45-0.14,7.83-2.21,10.5"/>
		<path class="st15" d="M162.96,69.31c-0.35,1.59-0.55,1.88-1.78,2.86"/>
		<path class="st15" d="M158.98,82.66c0.37,2.24-0.14,3.11-1.23,4.36"/>
		<path class="st15" d="M162.96,69.31c2.43,9.34-0.57,15.32-5.22,17.71"/>
		<path class="st15" d="M210.47,41.68c4.78,9.72-0.57,20.43-21.71,25.04"/>
		<path class="st15" d="M157.58,74.04c3.49-10.98,13.75-4.44,31.18-7.32"/>
	</g>
</g>
<g id="XMLID_13_">
	<g>
		<path d="M207.58,36.66c12.95,10.43,1.69,26.03-12.91,29.98c-13.06,4.43-21.45,0.8-30.07,2.3c2.14,9.36-0.16,17.06-8.59,20.07
			c2.91-7.79-3.44-10.85-3.89-21.56c0.58-9.57,7.21-19.32,19.33-21.32c14.88-2.83,17.5,2.9,29.43,0.35
			C206.52,44.53,208.33,41.18,207.58,36.66z M188.76,66.72c19.04-3.55,27.91-16.84,20.35-26.8c-1.22,8.54-11.66,10.18-26.69,7.26
			c-12.75-2.17-29.88,4.93-28.79,22.46c0.42,4.41,5.55,13.39,4.11,17.38c3.96-2.17,7.9-8.8,5.22-17.71c-1.32,0.22-3,1.52-5.45,4.48
			c0.75-2.86,2.61-5.54,6.86-6.25C174.76,66.15,178.93,68.34,188.76,66.72z"/>
	</g>
	<g>
		<path class="st11" d="M152.12,67.45c0.58-9.57,7.21-19.32,19.33-21.32"/>
		<path class="st11" d="M200.88,46.48c-11.93,2.55-14.55-3.17-29.43-0.35"/>
		<path class="st11" d="M207.58,36.66c0.75,4.52-1.06,7.87-6.7,9.81"/>
		<path class="st11" d="M207.58,36.66c12.95,10.43,1.69,26.03-12.91,29.98"/>
		<path class="st11" d="M194.67,66.64c-13.06,4.43-21.45,0.8-30.07,2.3"/>
		<path class="st11" d="M164.6,68.94c2.14,9.36-0.16,17.06-8.59,20.07"/>
		<path class="st11" d="M152.12,67.45c0.45,10.71,6.8,13.77,3.89,21.56"/>
		<path class="st11" d="M157.51,73.79c0.75-2.86,2.61-5.54,6.86-6.25"/>
		<path class="st11" d="M188.76,66.72c-9.83,1.62-14-0.57-24.39,0.83"/>
		<path class="st11" d="M209.11,39.92c7.56,9.97-1.31,23.25-20.35,26.8"/>
		<path class="st11" d="M209.11,39.92c-1.22,8.54-11.66,10.18-26.69,7.26"/>
		<path class="st11" d="M153.63,69.64c-1.09-17.53,16.04-24.63,28.79-22.46"/>
		<path class="st11" d="M162.96,69.31c2.67,8.91-1.26,15.54-5.22,17.71"/>
		<path class="st11" d="M162.96,69.31c-1.32,0.22-3,1.52-5.45,4.48"/>
		<path class="st11" d="M157.74,87.03c1.44-3.99-3.69-12.98-4.11-17.38"/>
	</g>
</g>
<g>
	<path class="st8" d="M124.66,125.71c-0.49,1.65-1.24,3.16-2.27,4.54c-1.03,1.38-2.23,2.61-3.61,3.69
		c-1.38,1.08-2.69,2.02-3.95,2.81c-0.63,0.45-1.35,0.86-2.18,1.25c-1.51,0.7-3.14,1.23-4.9,1.58c-1.76,0.35-3.46,0.42-5.1,0.21
		c-1.47-0.19-2.89-0.67-4.26-1.42c-1.38-0.75-2.45-1.96-3.22-3.61c-0.39-0.85-0.68-1.82-0.86-2.93c-0.14-0.92-0.19-1.87-0.17-2.86
		c0.02-0.99,0.1-1.97,0.26-2.95c0.15-0.97,0.37-1.89,0.66-2.75c0.29-0.86,0.63-1.63,1.01-2.33c-2.04-0.34-3.54-1.55-4.51-3.63
		c-0.26-0.55-0.48-1.17-0.68-1.85c-0.19-0.68-0.32-1.45-0.38-2.3c-0.17-1.16-0.19-2.49-0.07-3.99c0.12-1.5,0.42-2.97,0.92-4.42
		c0.5-1.44,1.2-2.79,2.1-4.04c0.9-1.25,2.04-2.19,3.41-2.83c1.27-0.59,2.68-0.92,4.23-1c1.55-0.08,3.09,0.14,4.62,0.64
		c1.53,0.5,2.96,1.28,4.29,2.34c1.33,1.06,2.38,2.42,3.15,4.07c0.08,0.17,0.14,0.33,0.2,0.49c0.05,0.16,0.12,0.32,0.2,0.49
		c0.45,1.24,0.65,2.41,0.6,3.51c-0.05,1.11-0.29,2.1-0.72,2.97c2.32,0.32,4.43,1.1,6.33,2.36c1.9,1.26,3.32,2.88,4.24,4.88
		c0.16,0.34,0.28,0.63,0.37,0.87c0.09,0.24,0.18,0.55,0.27,0.92C125.14,122.3,125.14,124.06,124.66,125.71z M117.32,118.83
		c-0.78-0.59-1.67-1.01-2.69-1.27c-1.02-0.25-2.12-0.32-3.32-0.2c-1.2,0.12-2.4,0.46-3.6,1.02c-0.21,0.1-0.44,0.22-0.71,0.37
		c-0.27,0.15-0.52,0.31-0.78,0.48c-1.16,0.75-2.19,1.48-3.1,2.22c-0.91,0.73-1.65,1.55-2.21,2.46c-0.56,0.91-0.94,1.95-1.14,3.13
		c-0.2,1.18-0.2,2.57,0,4.18c0.05,0.29,0.11,0.52,0.19,0.69c0.22,0.47,0.57,0.85,1.06,1.13c0.49,0.29,1.01,0.49,1.56,0.59
		l-0.05,0.02c1.04,0.08,2.24-0.02,3.61-0.32c1.36-0.3,2.7-0.75,4-1.36c0.27-0.13,0.55-0.26,0.82-0.38c0.27-0.13,0.54-0.28,0.79-0.45
		c1.07-0.65,2.11-1.4,3.13-2.23c1.01-0.83,1.89-1.68,2.64-2.54c0.75-0.86,1.29-1.71,1.64-2.54c0.34-0.83,0.4-1.58,0.17-2.25
		l-0.24-0.51C118.69,120.16,118.09,119.42,117.32,118.83z M107.56,109.97c0.99-1.1,1.23-2.29,0.73-3.55l-0.12-0.25
		c-0.32-0.68-0.8-1.25-1.46-1.72c-0.66-0.47-1.39-0.83-2.19-1.07c-0.8-0.25-1.64-0.35-2.52-0.3c-0.88,0.05-1.69,0.25-2.45,0.6
		c-0.72,0.34-1.35,0.87-1.88,1.61c-0.53,0.74-0.97,1.56-1.3,2.46c-0.33,0.9-0.54,1.83-0.62,2.77c-0.08,0.94-0.03,1.76,0.16,2.44
		c0.11,0.52,0.22,0.88,0.32,1.09c0.3,0.64,0.83,1.02,1.6,1.15c0.77,0.13,2-0.19,3.68-0.98c0.27-0.13,0.55-0.26,0.82-0.38
		c0.27-0.13,0.57-0.29,0.9-0.49C105.13,112.2,106.57,111.08,107.56,109.97z"/>
	<path class="st8" d="M153.67,108.18c-1.09,1.82-2.25,3.51-3.47,5.06c-1.22,1.55-2.43,2.92-3.62,4.13c-1.19,1.2-2.16,2.13-2.9,2.78
		c-0.11,1.03-0.54,1.72-1.29,2.07c-0.65,0.3-1.3,0.27-1.93-0.11c-0.15,0.12-0.32,0.24-0.5,0.35c-0.18,0.11-0.37,0.21-0.58,0.31
		c-1.27,0.59-2.55,0.88-3.83,0.85s-2.53-0.29-3.73-0.82c-2.34-1.08-4.24-3.19-5.7-6.33c-0.45-0.98-0.87-2.1-1.25-3.37
		c-0.38-1.27-0.67-2.66-0.87-4.16c-0.34-2.16-0.63-4.55-0.88-7.14c-0.25-2.6-0.44-5.18-0.57-7.75c-0.13-2.57-0.19-5.03-0.18-7.39
		c0.01-2.35,0.1-4.42,0.27-6.21c0.04-0.64,0.19-1.14,0.45-1.53c0.26-0.38,0.58-0.66,0.96-0.83c0.51-0.24,1.13-0.27,1.84-0.08
		c0.43,0.21,0.86,0.48,1.28,0.8c0.42,0.32,0.77,0.78,1.05,1.37c0.12,0.25,0.22,0.53,0.32,0.82c0.09,0.29,0.03,0.32,0.01,0.64
		l0.08,0.21c0.05,0.65,0,1.17-0.14,1.58c-0.15,0.4-0.35,0.82-0.61,1.25c-0.03,1.56-0.03,3.27-0.03,5.12
		c0.01,1.86,0.05,3.8,0.14,5.82c0.09,2.03,0.22,4.09,0.41,6.2c0.19,2.11,0.47,4.24,0.84,6.39c0.34,2.17,0.86,3.99,1.55,5.48
		c0.73,1.57,1.64,2.62,2.72,3.15c0.92,0.45,2.03,0.37,3.34-0.24c0.17-0.08,0.34-0.16,0.51-0.24c0.21-0.1,0.4-0.21,0.59-0.35
		c-0.66-4.55-0.94-8.57-0.86-12.07c0.08-3.5,0.59-6.32,1.52-8.45c1.2-2.62,2.81-4.41,4.84-5.35c1.78-0.83,4.02-1.14,5.99-0.31
		l-0.05,0.02c1.34,0.36,2.54,0.99,3.6,1.89c1.07,0.9,1.91,2.03,2.55,3.38c0.51,1.1,0.83,2.27,0.94,3.51
		c0.12,1.24,0.01,2.53-0.33,3.87C155.59,104.46,154.77,106.35,153.67,108.18z M150.66,97.46c-0.14-0.3-0.36-0.57-0.66-0.81
		c-0.3-0.25-0.67-0.48-1.1-0.69c-0.91-0.35-1.83-0.31-2.76,0.12c-0.55,0.26-1.05,0.61-1.51,1.05c-0.46,0.45-0.82,1.02-1.09,1.71
		c-0.5,1.27-0.81,2.93-0.93,5c-0.12,2.07-0.04,4.77,0.26,8.09c0.72-0.7,1.5-1.54,2.34-2.52c0.84-0.98,1.64-2.01,2.41-3.1
		c0.77-1.08,1.44-2.17,2.02-3.26c0.58-1.09,0.95-2.12,1.13-3.08l-0.03-0.06C150.96,98.87,150.94,98.05,150.66,97.46z"/>
</g>
<g>
	<path d="M179.54,107.82l-18.46,7.02l-4.06-10.69l7.76-35.16l8.83-3.36l10.93,28.75l4.58-1.74l3.83,10.08l-4.58,1.74l3.32,8.74
		l-8.83,3.36L179.54,107.82z M175.71,97.73l-5.6-14.72l-4.16,18.43L175.71,97.73z"/>
</g>
<g id="Cheeto_Prime_2_">
	<g>
		<path d="M221.96,74.3c1.4,1.59,0.18,2.96-0.84,3.35l-2.38,1.29c2.84,1.94,5.15,3.03,2.93,7.72c-0.2,0.35,0.11,0.41,0.36,0.5
			c3.18,1.24,1.67,2.83,0.26,3.36c0.33,0.88,0.34,1.63,0.21,2c1.82,1.1,2.72,3.02,2.45,4.22c-0.24,1.89-5.43,5.33-9.21,7.43
			l-0.09,0.03c-4.99-16-4.06-33.19-2.29-37.39c0.3,0.63,0.67,0.56,1.15,1.01l2.22,1.61L221.96,74.3z"/>
	</g>
	<g>
		<line class="st5" x1="221.96" y1="74.3" x2="216.73" y2="69.42"/>
		<line class="st5" x1="216.73" y1="69.42" x2="214.51" y2="67.81"/>
		<path class="st5" d="M221.96,74.3c1.4,1.59,0.18,2.96-0.84,3.35"/>
		<path class="st5" d="M221.67,86.65c2.21-4.69-0.1-5.78-2.93-7.72"/>
		<line class="st5" x1="221.12" y1="77.64" x2="218.74" y2="78.93"/>
		<path class="st5" d="M222.03,87.15c3.18,1.24,1.67,2.83,0.26,3.36"/>
		<path class="st5" d="M222.29,90.52c0.33,0.88,0.34,1.63,0.21,2"/>
		<path class="st5" d="M221.67,86.65c-0.2,0.35,0.11,0.41,0.36,0.5"/>
		<path class="st5" d="M222.5,92.51c1.82,1.1,2.72,3.02,2.45,4.22"/>
		<path class="st5" d="M224.95,96.74c-0.24,1.89-5.43,5.33-9.21,7.43"/>
		<path class="st5" d="M213.36,66.81c0.3,0.63,0.67,0.56,1.15,1.01"/>
		<path class="st16" d="M215.65,104.21c0-0.01,0-0.01,0-0.01c-4.99-16-4.06-33.19-2.29-37.39"/>
	</g>
</g>
<g>
	<path d="M180.47,63.93l29.58-11.25l3.34,8.78c-1.44,3.96-2.36,8-2.77,12.12c-0.49,5.01-0.36,10.32,0.4,15.95
		c0.57,4.39,1.73,9.39,3.48,15l-10.1,3.84c-2.11-7.94-3.29-14.82-3.54-20.64c-0.26-5.82,0.35-12.38,1.8-19.68l-18.01,6.85
		L180.47,63.93z"/>
</g>
<g id="XMLID_12_">
	<g>
		<path class="st12" d="M209.11,39.92c7.56,9.97-1.31,23.25-20.35,26.8c-9.83,1.62-14-0.57-24.39,0.83
			c-4.25,0.7-6.11,3.39-6.86,6.25c2.45-2.96,4.13-4.26,5.45-4.48c2.67,8.91-1.26,15.54-5.22,17.71c1.44-3.99-3.69-12.98-4.11-17.38
			c-1.09-17.53,16.04-24.63,28.79-22.46C197.45,50.1,207.89,48.46,209.11,39.92z"/>
		<path d="M207.58,36.66c12.95,10.43,1.69,26.03-12.91,29.98c-13.06,4.43-21.45,0.8-30.07,2.3c2.14,9.36-0.16,17.06-8.59,20.07
			c2.91-7.79-3.44-10.85-3.89-21.56c0.58-9.57,7.21-19.32,19.33-21.32c14.88-2.83,17.5,2.9,29.43,0.35
			C206.52,44.53,208.33,41.18,207.58,36.66z M188.76,66.72c19.04-3.55,27.91-16.84,20.35-26.8c-1.22,8.54-11.66,10.18-26.69,7.26
			c-12.75-2.17-29.88,4.93-28.79,22.46c0.42,4.41,5.55,13.39,4.11,17.38c3.96-2.17,7.9-8.8,5.22-17.71c-1.32,0.22-3,1.52-5.45,4.48
			c0.75-2.86,2.61-5.54,6.86-6.25C174.76,66.15,178.93,68.34,188.76,66.72z"/>
	</g>
	<g>
	</g>
</g>
<g id="XMLID_11_">
	<g>
		<path class="st14" d="M156.33,62c1.88-4.34,5.3-7.99,13.25-9.3c7.99-1.43,13.36,2.48,26.09,1.16c7.46-1.23,11.9-4.91,13.88-9.29
			l0.79,0.35c-1.95,4.18-6.01,8.85-15,10.33c-11.34,1.55-16.71-2.92-25.97-1.39C165.71,54.46,160.83,55.26,156.33,62z"/>
		<path class="st14" d="M155.29,68.17c1.38-4.14,4.67-7.64,11.8-8.82c10.35-1.71,12.91,0.27,22.32,0.15
			c13.13-0.37,20.63-8.02,20.93-14.59l-0.79-0.35c0.42-0.94,0.73-1.9,0.93-2.89c4.78,9.72-0.57,20.43-21.71,25.04
			c-17.42,2.88-27.69-3.66-31.18,7.32c-0.11-13.88,21.87-7.29,32.92-9.84c11.63-1.92,17.69-8.66,19.32-13.97
			c-2,4.32-6.96,8.86-17.09,10.53c-5.81,1.1-13.98-1.41-21.92-0.58C163.91,60.44,157.6,62.35,155.29,68.17z"/>
		<path class="st14" d="M161.19,72.17c1.22-0.97,1.43-1.27,1.78-2.86c2.43,9.34-0.57,15.32-5.22,17.71c1.1-1.25,1.6-2.12,1.23-4.36
			C161.05,80,162.09,77.62,161.19,72.17z"/>
	</g>
	<g>
		<path class="st3" d="M156.33,62c1.88-4.34,5.3-7.99,13.25-9.3"/>
		<path class="st3" d="M169.58,52.7c7.99-1.43,13.36,2.48,26.09,1.16"/>
		<path class="st3" d="M210.47,41.68c-0.2,0.98-0.51,1.95-0.93,2.89c-1.97,4.38-6.42,8.06-13.88,9.29"/>
		<path class="st3" d="M169.37,53.85c-3.66,0.6-8.55,1.41-13.04,8.15"/>
		<path class="st3" d="M195.34,55.25c-11.34,1.55-16.71-2.92-25.97-1.39"/>
		<path class="st3" d="M210.34,44.91c-1.95,4.18-6.01,8.85-15,10.33"/>
		<path class="st3" d="M210.34,44.91c-0.31,6.57-7.81,14.22-20.93,14.59"/>
		<path class="st3" d="M189.41,59.5c-9.41,0.11-11.97-1.86-22.32-0.15"/>
		<path class="st3" d="M155.29,68.17c1.38-4.14,4.67-7.64,11.8-8.82"/>
		<path class="st3" d="M155.29,68.17c2.31-5.81,8.62-7.73,15.53-8"/>
		<path class="st3" d="M192.73,60.75c-5.81,1.1-13.98-1.41-21.92-0.58"/>
		<path class="st3" d="M209.82,50.22c-2,4.32-6.96,8.86-17.09,10.53"/>
		<path class="st3" d="M190.5,64.19c-11.05,2.55-33.03-4.03-32.92,9.84"/>
		<path class="st3" d="M209.82,50.22c-1.63,5.32-7.68,12.05-19.32,13.97"/>
		<path class="st3" d="M161.19,72.17c0.9,5.45-0.14,7.83-2.21,10.5"/>
		<path class="st3" d="M162.96,69.31c-0.35,1.59-0.55,1.88-1.78,2.86"/>
		<path class="st3" d="M158.98,82.66c0.37,2.24-0.14,3.11-1.23,4.36"/>
		<path class="st3" d="M162.96,69.31c2.43,9.34-0.57,15.32-5.22,17.71"/>
		<path class="st3" d="M210.47,41.68c4.78,9.72-0.57,20.43-21.71,25.04"/>
		<path class="st3" d="M157.58,74.04c3.49-10.98,13.75-4.44,31.18-7.32"/>
	</g>
</g>
<g id="XMLID_10_">
	<g>
		<path class="st17" d="M209.11,37.01c7.56,9.97-1.31,23.25-20.35,26.8c-9.83,1.62-14-0.57-24.39,0.83
			c-4.25,0.7-6.11,3.39-6.86,6.25c2.45-2.96,4.13-4.26,5.45-4.48c2.67,8.91-1.26,15.54-5.22,17.71c1.44-3.99-3.69-12.98-4.11-17.38
			c-1.09-17.53,16.04-24.63,28.79-22.46C197.45,47.19,207.89,45.55,209.11,37.01z"/>
		<path d="M207.58,33.76c12.95,10.43,1.69,26.03-12.91,29.98c-13.06,4.43-21.45,0.8-30.07,2.3c2.14,9.36-0.16,17.06-8.59,20.07
			c2.91-7.79-3.44-10.85-3.89-21.56c0.58-9.57,7.21-19.32,19.33-21.32c14.88-2.83,17.5,2.9,29.43,0.35
			C206.52,41.62,208.33,38.27,207.58,33.76z M188.76,63.81c19.04-3.55,27.91-16.84,20.35-26.8c-1.22,8.54-11.66,10.18-26.69,7.26
			c-12.75-2.17-29.88,4.93-28.79,22.46c0.42,4.41,5.55,13.39,4.11,17.38c3.96-2.17,7.9-8.8,5.22-17.71c-1.32,0.22-3,1.52-5.45,4.48
			c0.75-2.86,2.61-5.54,6.86-6.25C174.76,63.25,178.93,65.43,188.76,63.81z"/>
	</g>
	<g>
	</g>
</g>
<g>
	<path class="st18" d="M124.66,125.71c-0.49,1.65-1.24,3.16-2.27,4.54c-1.03,1.38-2.23,2.61-3.61,3.69
		c-1.38,1.08-2.69,2.02-3.95,2.81c-0.63,0.45-1.35,0.86-2.18,1.25c-1.51,0.7-3.14,1.23-4.9,1.58c-1.76,0.35-3.46,0.42-5.1,0.21
		c-1.47-0.19-2.89-0.67-4.26-1.42c-1.38-0.75-2.45-1.96-3.22-3.61c-0.39-0.85-0.68-1.82-0.86-2.93c-0.14-0.92-0.19-1.87-0.17-2.86
		c0.02-0.99,0.1-1.97,0.26-2.95c0.15-0.97,0.37-1.89,0.66-2.75c0.29-0.86,0.63-1.63,1.01-2.33c-2.04-0.34-3.54-1.55-4.51-3.63
		c-0.26-0.55-0.48-1.17-0.68-1.85c-0.19-0.68-0.32-1.45-0.38-2.3c-0.17-1.16-0.19-2.49-0.07-3.99c0.12-1.5,0.42-2.97,0.92-4.42
		c0.5-1.44,1.2-2.79,2.1-4.04c0.9-1.25,2.04-2.19,3.41-2.83c1.27-0.59,2.68-0.92,4.23-1c1.55-0.08,3.09,0.14,4.62,0.64
		c1.53,0.5,2.96,1.28,4.29,2.34c1.33,1.06,2.38,2.42,3.15,4.07c0.08,0.17,0.14,0.33,0.2,0.49c0.05,0.16,0.12,0.32,0.2,0.49
		c0.45,1.24,0.65,2.41,0.6,3.51c-0.05,1.11-0.29,2.1-0.72,2.97c2.32,0.32,4.43,1.1,6.33,2.36c1.9,1.26,3.32,2.88,4.24,4.88
		c0.16,0.34,0.28,0.63,0.37,0.87c0.09,0.24,0.18,0.55,0.27,0.92C125.14,122.3,125.14,124.06,124.66,125.71z M117.32,118.83
		c-0.78-0.59-1.67-1.01-2.69-1.27c-1.02-0.25-2.12-0.32-3.32-0.2c-1.2,0.12-2.4,0.46-3.6,1.02c-0.21,0.1-0.44,0.22-0.71,0.37
		c-0.27,0.15-0.52,0.31-0.78,0.48c-1.16,0.75-2.19,1.48-3.1,2.22c-0.91,0.73-1.65,1.55-2.21,2.46c-0.56,0.91-0.94,1.95-1.14,3.13
		c-0.2,1.18-0.2,2.57,0,4.18c0.05,0.29,0.11,0.52,0.19,0.69c0.22,0.47,0.57,0.85,1.06,1.13c0.49,0.29,1.01,0.49,1.56,0.59
		l-0.05,0.02c1.04,0.08,2.24-0.02,3.61-0.32c1.36-0.3,2.7-0.75,4-1.36c0.27-0.13,0.55-0.26,0.82-0.38c0.27-0.13,0.54-0.28,0.79-0.45
		c1.07-0.65,2.11-1.4,3.13-2.23c1.01-0.83,1.89-1.68,2.64-2.54c0.75-0.86,1.29-1.71,1.64-2.54c0.34-0.83,0.4-1.58,0.17-2.25
		l-0.24-0.51C118.69,120.16,118.09,119.42,117.32,118.83z M107.56,109.97c0.99-1.1,1.23-2.29,0.73-3.55l-0.12-0.25
		c-0.32-0.68-0.8-1.25-1.46-1.72c-0.66-0.47-1.39-0.83-2.19-1.07c-0.8-0.25-1.64-0.35-2.52-0.3c-0.88,0.05-1.69,0.25-2.45,0.6
		c-0.72,0.34-1.35,0.87-1.88,1.61c-0.53,0.74-0.97,1.56-1.3,2.46c-0.33,0.9-0.54,1.83-0.62,2.77c-0.08,0.94-0.03,1.76,0.16,2.44
		c0.11,0.52,0.22,0.88,0.32,1.09c0.3,0.64,0.83,1.02,1.6,1.15c0.77,0.13,2-0.19,3.68-0.98c0.27-0.13,0.55-0.26,0.82-0.38
		c0.27-0.13,0.57-0.29,0.9-0.49C105.13,112.2,106.57,111.08,107.56,109.97z"/>
	<path class="st18" d="M153.67,108.18c-1.09,1.82-2.25,3.51-3.47,5.06c-1.22,1.55-2.43,2.92-3.62,4.13c-1.19,1.2-2.16,2.13-2.9,2.78
		c-0.11,1.03-0.54,1.72-1.29,2.07c-0.65,0.3-1.3,0.27-1.93-0.11c-0.15,0.12-0.32,0.24-0.5,0.35c-0.18,0.11-0.37,0.21-0.58,0.31
		c-1.27,0.59-2.55,0.88-3.83,0.85s-2.53-0.29-3.73-0.82c-2.34-1.08-4.24-3.19-5.7-6.33c-0.45-0.98-0.87-2.1-1.25-3.37
		c-0.38-1.27-0.67-2.66-0.87-4.16c-0.34-2.16-0.63-4.55-0.88-7.14c-0.25-2.6-0.44-5.18-0.57-7.75c-0.13-2.57-0.19-5.03-0.18-7.39
		c0.01-2.35,0.1-4.42,0.27-6.21c0.04-0.64,0.19-1.14,0.45-1.53c0.26-0.38,0.58-0.66,0.96-0.83c0.51-0.24,1.13-0.27,1.84-0.08
		c0.43,0.21,0.86,0.48,1.28,0.8c0.42,0.32,0.77,0.78,1.05,1.37c0.12,0.25,0.22,0.53,0.32,0.82c0.09,0.29,0.13,0.6,0.11,0.92
		l-0.03-0.06c0.05,0.65,0,1.17-0.14,1.58c-0.15,0.4-0.35,0.82-0.61,1.25c-0.03,1.56-0.03,3.27-0.03,5.12
		c0.01,1.86,0.05,3.8,0.14,5.82c0.09,2.03,0.22,4.09,0.41,6.2c0.19,2.11,0.47,4.24,0.84,6.39c0.34,2.17,0.86,3.99,1.55,5.48
		c0.73,1.57,1.64,2.62,2.72,3.15c0.92,0.45,2.03,0.37,3.34-0.24c0.17-0.08,0.34-0.16,0.51-0.24c0.21-0.1,0.4-0.21,0.59-0.35
		c-0.66-4.55-0.94-8.57-0.86-12.07c0.08-3.5,0.59-6.32,1.52-8.45c1.2-2.62,2.81-4.41,4.84-5.35c1.78-0.83,3.78-0.93,5.99-0.31
		l-0.05,0.02c1.34,0.36,2.54,0.99,3.6,1.89c1.07,0.9,1.91,2.03,2.55,3.38c0.51,1.1,0.83,2.27,0.94,3.51
		c0.12,1.24,0.01,2.53-0.33,3.87C155.59,104.46,154.77,106.35,153.67,108.18z M150.66,97.46c-0.14-0.3-0.36-0.57-0.66-0.81
		c-0.3-0.25-0.67-0.48-1.1-0.69c-0.91-0.35-1.83-0.31-2.76,0.12c-0.55,0.26-1.05,0.61-1.51,1.05c-0.46,0.45-0.82,1.02-1.09,1.71
		c-0.5,1.27-0.81,2.93-0.93,5c-0.12,2.07-0.04,4.77,0.26,8.09c0.72-0.7,1.5-1.54,2.34-2.52c0.84-0.98,1.64-2.01,2.41-3.1
		c0.77-1.08,1.44-2.17,2.02-3.26c0.58-1.09,0.95-2.12,1.13-3.08l-0.03-0.06C150.96,98.87,150.94,98.05,150.66,97.46z"/>
</g>
<path d="M165.57,67.96c-0.35-0.05-0.7,0.09-0.98,0.3c-0.46,0.34-0.77,1.01-0.45,1.49c0.32,0.47,1.03,0.45,1.54,0.21
	c0.3-0.67,0.26-1.48-0.12-2.11"/>
<path id="SVGID_x5F_1_x5F_" class="st19" d="M211.66,103.76c-5.18-17.72-4.14-31.84-2-36.46"/>
<text><textPath  xlink:href="#SVGID_x5F_1_x5F_" startOffset="1.665%">
<tspan  class="st17" style="font-family:'Arial-BoldMT'; font-size:4.9404px;">www.8647.club</tspan></textPath>
</text>
<g id="XMLID_9_">
	<g>
		<path d="M162.97,69.31c2.43,9.33-0.57,15.33-5.23,17.71c1.1-1.24,1.6-2.12,1.24-4.36c2.08-2.66,3.11-5.04,2.21-10.49
			C162.41,71.19,162.61,70.9,162.97,69.31z"/>
		<path d="M195.34,55.25c-11.33,1.55-16.71-2.92-25.97-1.4c-3.65,0.6-8.55,1.41-13.04,8.15c1.87-4.34,5.29-7.99,13.25-9.3
			c8-1.43,13.36,2.48,26.09,1.16c9.05-1.5,13.67-6.59,14.8-12.18c6.51,13.91-6.5,23.39-23.2,25.87c-4.86,1.76-24.43-3.79-29.69,6.49
			c-0.11-13.87,21.87-7.28,32.92-9.84c11.64-1.92,17.69-8.65,19.32-13.97c-2,4.32-6.96,8.86-17.09,10.53
			c-5.81,1.1-13.98-1.41-21.91-0.58c-6.91,0.27-13.22,2.18-15.53,8c0.51-1.55,1.3-3.02,2.46-4.3c1.92-2.14,4.87-3.78,9.33-4.52
			c10.34-1.71,12.91,0.27,22.32,0.15c13.12-0.37,20.62-8.01,20.93-14.59C208.39,49.09,204.33,53.77,195.34,55.25z"/>
	</g>
	<g>
	</g>
</g>
<g id="XMLID_8_">
	<g>
		<path d="M161.42,139.4c-1.72,4.02-2.79,4.02-6.96,8.04l-0.44,0.13c-0.08-0.3-0.18-0.61-0.28-0.92l-2.6-3.9L161.42,139.4z"/>
		<path class="st17" d="M154.03,147.57c2.17,8.25-3.97,14.75-12.34,16.45c-6.78,1.81-19.9,7.14-29.6,10.98
			c-0.66,0.26-1.3,0.52-1.93,0.76l-22.85,9.58H87.3c1.78-6.17,3.55-13.07,4.9-20.53l58.95-22.07l2.6,3.9
			C153.85,146.96,153.94,147.27,154.03,147.57z"/>
		<path class="st17" d="M139.92,176.56c0.33,1.13,0.46,2.21,0.41,3.23c-0.18,4.42-3.58,7.66-7.49,8.85
			c-4.18,1.76-7.8,5.02-20.75,8.52c-3.87,4.02-9.49,7.44-20.75,10.84c-2.42,2.36-5.55,6.38-11.08,10.58
			c0.34-4.6,0.85-9.7,1.59-15.46c1.47-4.86,3.48-10.86,5.46-17.77h0.01l22.85-9.58c0.63-0.24,1.27-0.5,1.93-0.76
			c2.7,0.39,5.53,0.6,7.65,0.6c1.18-0.01,2.13-0.08,2.73-0.24C131.19,171.25,137.42,171.82,139.92,176.56z"/>
		<path d="M139.92,176.56c-2.5-4.75-8.73-5.31-17.46-1.2c-0.6,0.15-1.55,0.23-2.73,0.24v-0.01l-0.01-0.29
			c4.04-4,12.88-6.05,26.19-6.13c0,4.53-2.1,7.8-5.58,10.62C140.38,178.77,140.25,177.7,139.92,176.56z"/>
		<path d="M72.67,119.66c2.19-5.44,5.37-10.04,9.17-11.48c1.76-0.74,4.66-1.04,5.63-0.65c5.28,1.81,6.85,10.33,6.15,18.96
			c-0.77,9.75-4.44,19.66-8.89,20.15c-2.33,0.48-11.42-1.86-13.1-3.22C68.04,140.49,68.95,128.87,72.67,119.66z"/>
		<path class="st17" d="M10.22,165.84c1.87,0.65,3.62,1.52,5.14,2.65c4.83-3.75,24.9-20.5,45.55-27.73c2.64-6.12,5.9-12.34,10-18.52
			v-0.01c0.16-0.25,0.33-0.5,0.5-0.75c0.13-0.1,0.21-0.21,0.21-0.31c0.34-0.5,0.69-1.01,1.04-1.51c-3.71,9.2-4.63,20.83-1.04,23.76
			c1.68,1.36,10.77,3.7,13.1,3.22c4.44-0.49,8.12-10.39,8.89-20.15l0.45,0.03c1.36,13.7,0.24,26.67-1.87,38.29
			c-1.35,7.46-3.12,14.36-4.9,20.53c-1.98,6.92-3.99,12.91-5.46,17.77c-0.74,5.76-1.25,10.86-1.59,15.46
			c-1.88,25.57,1.59,35.26,1.59,53.4v17.54L0,291.39V110.44c0-1.6,4.08-2.5,8.15-2.9l41.83-11.42l10.94-0.32l9.83,26
			c-2.52,0.87-10.21,1.51-19.32,1.51c-4.67,5.79-13.52,8.21-27.52,13.52C23.02,145.52,14.66,163.94,10.22,165.84z"/>
	</g>
	<g>
		<path class="st2" d="M94.06,126.53c1.36,13.7,0.24,26.67-1.87,38.29c-1.35,7.46-3.12,14.36-4.9,20.53
			c-1.98,6.92-3.99,12.91-5.46,17.77"/>
		<path class="st2" d="M70.91,122.24c-4.1,6.18-7.36,12.4-10,18.52c-7.78,18.06-10.05,35.08-11.91,46.42"/>
		<path class="st2" d="M72.67,119.66c-0.35,0.5-0.71,1.01-1.04,1.51c-0.08,0.1-0.15,0.21-0.21,0.31c-0.18,0.25-0.34,0.5-0.5,0.75"/>
		<path class="st2" d="M81.84,271.98c0-18.14-3.47-27.84-1.59-53.4c0.34-4.6,0.85-9.7,1.59-15.46"/>
		<path class="st2" d="M49.01,187.19c-3.71,9.58-6.39,15.45-11.5,20.81c-2.87,3.02-6.49,5.86-11.5,9.12"/>
		<path class="st2" d="M37.51,208c-3.62-1.98-8.44-4.88-14.72-6.81"/>
		<path class="st2" d="M23.91,136.83c-0.89,8.69-9.25,27.11-13.69,29.01c-0.11,0.05-0.21,0.08-0.31,0.11"/>
		<path class="st2" d="M14.9,168.84c0.13-0.1,0.29-0.22,0.46-0.35c4.83-3.75,24.9-20.5,45.55-27.73"/>
		<path class="st2" d="M20.05,174.47c-1-2.5-2.65-4.47-4.69-5.98c-1.52-1.13-3.28-2-5.14-2.65c-1.24-0.44-2.53-0.77-3.85-1.03"/>
		<path class="st2" d="M51.43,123.31c-4.67,5.79-13.52,8.21-27.52,13.52"/>
		<path class="st2" d="M71.63,121.18c0,0.1-0.08,0.21-0.21,0.31c-0.15,0.11-0.38,0.21-0.67,0.31c-2.52,0.87-10.21,1.51-19.32,1.51"
			/>
		<line class="st2" x1="60.91" y1="95.8" x2="49.97" y2="96.12"/>
		<line class="st2" x1="49.97" y1="96.12" x2="8.15" y2="107.54"/>
		<path class="st2" d="M0,110.44c0-1.6,4.08-2.5,8.15-2.9"/>
		<path class="st2" d="M141.68,164.02c-6.78,1.81-19.9,7.14-29.6,10.98c-0.66,0.26-1.3,0.52-1.93,0.76"/>
		<line class="st2" x1="110.15" y1="175.77" x2="87.31" y2="185.35"/>
		<path class="st2" d="M91.33,208c-2.42,2.36-5.55,6.38-11.08,10.58"/>
		<path class="st2" d="M112.08,197.16c-3.87,4.02-9.49,7.44-20.75,10.84"/>
		<path class="st2" d="M132.84,188.64c-4.18,1.76-7.8,5.02-20.75,8.52"/>
		<line class="st2" x1="81.84" y1="271.98" x2="81.84" y2="289.52"/>
		<polyline class="st2" points="60.91,95.8 70.74,121.8 70.91,122.24 70.91,122.24 		"/>
		<path class="st2" d="M87.46,107.54c5.28,1.81,6.85,10.33,6.15,18.96c-0.77,9.75-4.44,19.66-8.89,20.15"/>
		<path class="st2" d="M81.84,108.19c-3.8,1.44-6.97,6.03-9.17,11.48c-3.71,9.2-4.63,20.83-1.04,23.76"/>
		<path class="st2" d="M87.46,107.54c-0.97-0.39-3.87-0.09-5.63,0.65"/>
		<path class="st2" d="M71.63,143.43c1.68,1.36,10.77,3.7,13.1,3.22"/>
		<path class="st2" d="M139.92,176.56c0.33,1.13,0.46,2.21,0.41,3.23c-0.18,4.42-3.58,7.66-7.49,8.85"/>
		<path class="st2" d="M139.92,176.56c-2.5-4.75-8.73-5.31-17.46-1.2"/>
		<path class="st2" d="M122.46,175.36c-0.6,0.15-1.55,0.23-2.73,0.24c-2.12,0.01-4.95-0.21-7.65-0.6"/>
		<path class="st2" d="M119.72,175.3c4.04-4,12.88-6.05,26.19-6.13c0.28-0.01,0.55-0.01,0.84-0.01"/>
		<path class="st2" d="M145.91,169.16L145.91,169.16c0,4.54-2.1,7.81-5.58,10.63"/>
		<path class="st2" d="M153.75,146.64c0.1,0.31,0.19,0.62,0.28,0.92c2.17,8.25-3.97,14.75-12.34,16.45"/>
		<line class="st2" x1="153.75" y1="146.64" x2="151.15" y2="142.75"/>
		<path class="st2" d="M161.42,139.4c-1.72,4.02-2.79,4.02-6.96,8.04"/>
		<line class="st2" x1="151.15" y1="142.75" x2="161.42" y2="139.4"/>
		<line class="st2" x1="0" y1="110.44" x2="0" y2="291.39"/>
		<line class="st2" x1="0" y1="291.39" x2="81.84" y2="289.52"/>
		<polyline class="st2" points="151.15,142.75 92.2,164.82 91.33,165.15 		"/>
	</g>
</g>
</svg>
